<?xml version="1.0" standalone="no"?><!DOCTYPE svg PUBLIC "-//W3C//DTD SVG 1.1//EN" "http://www.w3.org/Graphics/SVG/1.1/DTD/svg11.dtd"><svg t="1712632166425" class="icon" viewBox="0 0 1028 1024" version="1.1" xmlns="http://www.w3.org/2000/svg" p-id="12572" width="48.1875" height="48" xmlns:xlink="http://www.w3.org/1999/xlink"><path d="M498.379354 508.931283m-320.513774 0a320.513774 320.513774 0 1 0 641.027548 0 320.513774 320.513774 0 1 0-641.027548 0Z" fill="#6E6E96" opacity=".79" p-id="12573"></path><path d="M105.669298 264.723985c0.797181 1.422925 1.534358 2.850135 2.391542 4.264488l146.659814 245.163058 125.431663-217.248877 139.510904-248.75037-5.185961-5.181674c-2.961569-0.051431-5.923138-0.111434-8.90185-0.111434-168.685144 0-316.643591 88.641347-399.906112 221.864809z" fill="#00CCC6" p-id="12574"></path><path d="M86.96984 275.190196l0.660031 1.200057c0.595743 1.088623 1.268632 2.327253 2.087242 3.681603l146.612668 245.077339 18.720888 31.29577 18.228008-31.574355 125.431664-217.248876 139.643766-248.98181 7.946091-14.164957-11.494831-11.477688-5.18596-5.181674-6.128862-6.116004-8.657553-0.150007-1.298634-0.02143c-2.571551-0.051431-5.237391-0.098576-7.963234-0.098576-171.016683 0-327.306954 86.704113-418.074117 231.936716l-6.664601 10.663363 6.137434 11.160529zM505.571124 64.288764c2.352969 0 4.714509 0.042859 7.217485 0.085718l1.320062 0.02143-14.777843-6.266012 5.18596 5.181674-3.54874-25.642644-139.510903 248.75037-125.2988 217.017437 36.948895-0.287157-146.655528-245.163057a53.05966 53.05966 0 0 1-1.200057-2.134387l-0.878613-1.598647-0.527168 21.823892C206.722663 143.462519 349.426574 64.288764 505.571124 64.288764z" fill="#6E6E96" p-id="12575"></path><path d="M928.166883 296.898369c-74.703543-143.543952-221.093344-243.791564-391.720009-253.280586l-12.497736 4.530215-139.515189 248.750371h543.732934z" fill="#96DEA2" p-id="12576"></path><path d="M947.179213 287.006471c-80.000938-153.727292-236.92981-255.183533-409.549426-264.783988l-4.375922-0.244298-4.118767 1.4915-12.497735 4.530215-7.491784 2.717271-3.895899 6.947473-139.506617 248.754656-17.897992 31.912942H963.474272l-16.295059-31.325771z m-544.054377 20.375252l139.510903-248.750371-11.387683 9.664745 12.497736-4.530215-8.490403 1.251488c157.584618 8.764701 300.85427 101.40481 373.903449 241.777182l19.012331-31.321485H384.433949l18.690887 31.908656z" fill="#6E6E96" p-id="12577"></path><path d="M631.002788 296.898369l125.431663 217.248876 147.61986 251.733369h4.234486c46.116473-72.830597 72.81774-159.157549 72.81774-251.733369 0-78.689447-19.308059-152.85725-53.411105-218.067487l-3.814467 0.818611h-292.878177z" fill="#FFF2B0" p-id="12578"></path><path d="M612.440478 307.613162l125.427378 217.248877 147.697006 251.861946 6.206009 10.594788h28.3042l6.317442-9.964758c49.806648-78.668017 76.143612-169.683763 76.143612-263.198198 0-79.289475-19.312345-158.133215-55.849792-227.997958l-7.556073-14.452114-15.943613 3.428734-3.818753 0.81861 4.513071-0.480022h-329.99851l18.558023 32.140095z m18.56231 10.714794h295.166857l2.228677-0.480022 3.814467-0.818611-23.491114-11.019094c33.340153 63.761596 50.972418 135.73501 50.972418 208.137016 0 85.38405-24.03114 168.470848-69.496154 240.277111l18.108002-9.964758h-4.234487l18.485163 10.590502-147.624145-251.733369c0.077147 0.124292-125.354517-217.124585-125.354518-217.124585l-18.575166 32.13581z" fill="#6E6E96" p-id="12579"></path><path d="M904.054311 765.872042l-147.61986-251.724797-125.431663 217.240304-151.7772 253.036288c10.11048 0.647174 20.310963 1.015762 30.597166 1.015763 165.376416 0 310.836172-85.204041 394.938733-214.081584l-0.707176-5.485974z" fill="#FFC23F" p-id="12580"></path><path d="M922.539473 755.037242l-147.624145-251.729083-18.63517-31.767221-18.412302 31.891513-125.427378 217.240304c0.175723-0.3043-151.601477 252.731988-151.601476 252.731988l-18.090858 30.155716 35.093093 2.245821c10.976235 0.707176 21.729602 1.062908 31.968659 1.062907 167.082211 0 321.435247-83.665397 412.888156-223.802044l4.324491-6.626028-1.015763-7.843229-0.711462-5.477403-0.565741-4.324491-2.190104-3.75875z m-35.723123 4.607362c-83.506818 127.964641-224.444932 204.365408-376.993596 204.365408-9.326157 0-19.162337-0.321444-29.225672-0.972904l17.002235 32.410109 151.785771-253.036288 125.607387-217.54889-37.051758 0.124291 147.624145 251.724797-2.768703-8.08324 0.711463 5.477403 3.308728-14.460686z" fill="#6E6E96" p-id="12581"></path><path d="M631.002788 731.391835H91.512912c74.112087 142.416755 218.796092 242.21006 387.704104 253.027716l151.785772-253.027716z" fill="#F78383" p-id="12582"></path><path d="M631.002788 709.962247H56.205523l16.299345 31.330058c79.212329 152.222935 234.533982 253.572028 405.344941 264.518261l13.033475 0.831468 6.716033-11.194817 151.785771-253.019144 19.470924-32.452968h-37.853224v-0.012858z m-150.414278 253.070575c-155.934539-9.986188-297.734122-102.536292-370.067553-241.528599l-19.012331 31.330058h539.489876l-18.382301-32.452968-151.781485 253.02343 19.753794-10.371921z" fill="#6E6E96" p-id="12583"></path><path d="M108.052268 268.988473h-5.053097C59.411389 340.41329 34.287341 424.3487 34.287341 514.147245c0 78.346573 19.145194 152.240078 52.978227 217.24459h292.882464L108.052268 268.988473z" fill="#E09EFF" p-id="12584"></path><path d="M108.052268 247.558885H90.972887l-6.266012 10.269059C37.703217 334.841597 12.857753 423.478658 12.857753 514.147245c0 78.95946 19.158052 157.503185 55.39977 227.136488l6.004571 11.529118h343.362001l-19.008045-32.294389L126.524573 258.119386l-6.214581-10.560501h-12.257724zM380.148032 709.962247H87.265568l19.008044 11.529118C73.199186 657.948351 55.716929 586.249236 55.716929 514.147245c0-82.786784 22.67679-163.704908 65.578824-233.998242l-18.292296 10.264772h5.053097l-18.468019-10.560501 272.095764 462.407648 18.463733-32.298675z" fill="#6E6E96" p-id="12585"></path><path d="M542.635739 58.635638L499.309398 231.272399h360.197085l53.483966 74.73783-528.5565-9.11186zM126.524573 258.119386l123.678723 123.68301 243.144391-322.905317L255.012096 514.142959zM103.003457 290.418061S27.858464 488.431739 126.434569 659.868442h204.061107l43.437775 60.971464-286.667883 10.556215c0-0.004286-119.131365-206.109776 15.737889-440.97806zM186.437415 754.154343s80.193804 134.252082 256.932187 158.806104l149.775676-160.134738-113.932547 231.598128s-219.919003-28.831368-374.212036-230.269494H186.437415zM543.985803 918.107834c21.536736-4.744511 178.084161-4.911662 268.195578-168.239408l-55.618352-193.119161 130.253321 202.891053s-95.45167 233.175346-376.483572 214.565892l33.653025-56.098376z" fill="#6E6E96" opacity=".15" p-id="12586"></path><path d="M668.118834 318.327956l229.780899 294.391107s78.132277-156.097404 25.981232-294.391107c0 0 101.301948 226.206444-13.770653 429.590377-115.076887 203.383933 0.642888 10.517642 0.642888 10.517642L668.118834 318.327956z" fill="#6E6E96" opacity=".15" p-id="12587"></path></svg>