<?xml version="1.0" standalone="no"?><!DOCTYPE svg PUBLIC "-//W3C//DTD SVG 1.1//EN" "http://www.w3.org/Graphics/SVG/1.1/DTD/svg11.dtd"><svg t="1712710817007" class="icon" viewBox="0 0 1024 1024" version="1.1" xmlns="http://www.w3.org/2000/svg" p-id="12166" xmlns:xlink="http://www.w3.org/1999/xlink" width="48" height="48"><path d="M151.36 448c30.208-181.952 187.264-320 368.96-320C727.808 128 896 299.904 896 512s-168.192 384-375.68 384a370.304 370.304 0 0 1-262.4-109.184c-15.744-26.752-15.744-47.616 0-62.592 15.808-14.912 33.28-12.416 52.48 7.616A295.872 295.872 0 0 0 520.32 819.2c166.016 0 300.544-137.536 300.544-307.2S686.336 204.8 520.32 204.8C380.288 204.8 261.76 315.52 228.48 448h129.664L192 638.528 27.648 448h123.712zM512 512h96a32 32 0 0 1 0 64H448V352a32 32 0 0 1 64 0V512z" fill="#262626" p-id="12167"></path></svg>