<?xml version="1.0" standalone="no"?><!DOCTYPE svg PUBLIC "-//W3C//DTD SVG 1.1//EN" "http://www.w3.org/Graphics/SVG/1.1/DTD/svg11.dtd"><svg height="120" node-id="1" sillyvg="true" template-height="120" template-width="471" version="1.1" viewBox="0 0 471 120" width="471" xmlns="http://www.w3.org/2000/svg" xmlns:xlink="http://www.w3.org/1999/xlink"><defs node-id="59"></defs><path d="M 28.33 104.80 L 98.83 111.09 L 323.01 112.18 L 408.12 112.18 L 414.86 98.99 L 388.91 49.59 L 55.17 46.17 L 30.85 58.49 L 28.33 104.80 Z" fill="#353535" fill-rule="nonzero" node-id="61" stroke="none" target-height="66.009796" target-width="386.53" target-x="28.33" target-y="46.1682"></path><path d="M 273.70 2.45 C 273.70 2.45 343.77 22.79 361.65 37.31 C 372.21 45.90 354.71 38.72 354.71 38.72 L 264.78 10.66 L 273.70 2.45 Z" fill="#bcbcbc" fill-rule="nonzero" node-id="63" stroke="none" target-height="43.45006" target-width="107.42999" target-x="264.78" target-y="2.44824"></path><path d="M 69.21 119.89 C 88.70 119.89 104.50 104.09 104.50 84.60 C 104.50 65.11 88.70 49.31 69.21 49.31 C 49.72 49.31 33.92 65.11 33.92 84.60 C 33.92 104.09 49.72 119.89 69.21 119.89 Z" fill="#000000" fill-rule="nonzero" node-id="65" stroke="none" target-height="70.579895" target-width="70.58" target-x="33.92" target-y="49.3081"></path><path d="M 69.21 112.33 C 84.52 112.33 96.94 99.91 96.94 84.60 C 96.94 69.28 84.52 56.87 69.21 56.87 C 53.90 56.87 41.48 69.28 41.48 84.60 C 41.48 99.91 53.90 112.33 69.21 112.33 Z" fill="#000000" fill-rule="nonzero" node-id="67" stroke="none" target-height="55.459805" target-width="55.460003" target-x="41.48" target-y="56.8682"></path><path d="M 69.21 113.61 C 63.47 113.61 57.87 111.91 53.10 108.72 C 48.33 105.53 44.61 101.00 42.42 95.71 C 40.22 90.41 39.65 84.58 40.77 78.95 C 41.89 73.33 44.65 68.16 48.70 64.10 C 52.76 60.05 57.93 57.28 63.55 56.17 C 69.18 55.05 75.01 55.62 80.31 57.82 C 85.61 60.01 90.14 63.73 93.32 68.50 C 96.51 73.27 98.21 78.87 98.21 84.61 C 98.21 92.30 95.15 99.68 89.72 105.11 C 84.28 110.55 76.90 113.61 69.21 113.61 Z M 69.21 58.15 C 63.97 58.15 58.85 59.70 54.49 62.61 C 50.13 65.53 46.74 69.67 44.73 74.51 C 42.73 79.35 42.21 84.68 43.23 89.82 C 44.26 94.96 46.78 99.68 50.49 103.38 C 54.20 107.08 58.92 109.60 64.06 110.62 C 69.20 111.64 74.53 111.11 79.37 109.10 C 84.21 107.09 88.34 103.69 91.25 99.33 C 94.16 94.97 95.71 89.85 95.70 84.61 C 95.69 77.58 92.90 70.85 87.94 65.88 C 82.97 60.91 76.23 58.12 69.21 58.11 L 69.21 58.15 Z" fill="#232323" fill-rule="nonzero" node-id="69" stroke="none" target-height="58.561604" target-width="58.5618" target-x="39.6482" target-y="55.0464"></path><path d="M 69.21 88.38 C 71.30 88.38 72.99 86.69 72.99 84.60 C 72.99 82.51 71.30 80.82 69.21 80.82 C 67.12 80.82 65.43 82.51 65.43 84.60 C 65.43 86.69 67.12 88.38 69.21 88.38 Z" fill="#cccccc" fill-rule="nonzero" node-id="71" stroke="none" target-height="7.5599976" target-width="7.5599976" target-x="65.43" target-y="80.8181"></path><g node-id="189"><g node-id="193"><path d="M 69.21 92.19 C 73.40 92.19 76.80 88.79 76.80 84.60 C 76.80 80.41 73.40 77.01 69.21 77.01 C 65.02 77.01 61.62 80.41 61.62 84.60 C 61.62 88.79 65.02 92.19 69.21 92.19 Z" fill="#cccccc" fill-opacity="0.040000003" fill-rule="nonzero" group-id="1,5" node-id="77" stroke="none" target-height="15.179901" target-width="15.180004" target-x="61.62" target-y="77.0081"></path></g></g><path d="M 69.09 78.24 C 68.52 78.25 67.95 78.19 67.40 78.06 C 63.40 76.71 59.40 64.76 59.40 59.91 C 59.40 58.12 59.91 57.03 60.95 56.67 C 64.60 55.38 75.70 55.49 78.17 56.84 C 78.53 57.08 78.83 57.40 79.03 57.78 C 79.23 58.17 79.34 58.59 79.33 59.03 C 79.70 63.14 75.97 74.43 72.04 77.62 C 71.14 78.10 70.11 78.32 69.09 78.24 Z M 68.18 75.71 C 68.96 75.80 69.76 75.77 70.53 75.62 C 74.09 72.62 77.45 60.98 76.79 58.94 C 74.70 58.07 65.21 57.94 61.93 58.94 C 61.64 59.81 62.00 63.44 63.83 68.40 C 65.44 72.75 67.23 75.36 68.18 75.71 Z" fill="#686766" fill-rule="nonzero" node-id="81" stroke="none" target-height="22.938103" target-width="20.299995" target-x="59.4" target-y="55.378"></path><path d="M 50.48 87.22 C 47.85 87.28 45.23 86.98 42.68 86.33 C 40.98 85.79 40.11 84.95 40.08 83.85 C 39.98 79.98 43.52 69.46 45.57 67.53 C 45.91 67.26 46.30 67.08 46.73 67.00 C 47.16 66.93 47.59 66.97 48.00 67.11 C 52.00 68.02 61.62 75.06 63.43 79.78 C 63.88 80.94 62.87 83.71 62.43 84.30 C 60.87 86.37 55.47 87.22 50.48 87.22 Z M 42.56 83.61 C 43.29 84.16 46.85 84.94 52.13 84.73 C 56.77 84.54 59.81 83.64 60.44 82.85 C 60.76 82.13 60.98 81.37 61.08 80.59 C 59.31 76.27 49.29 69.48 47.15 69.48 C 45.68 71.18 42.60 80.15 42.56 83.61 Z" fill="#686766" fill-rule="nonzero" node-id="83" stroke="none" target-height="20.350105" target-width="23.900002" target-x="39.98" target-y="66.9285"></path><path d="M 60.05 112.16 C 59.86 112.16 59.67 112.13 59.49 112.07 C 55.78 110.97 46.87 104.35 45.66 101.81 C 45.51 101.40 45.46 100.97 45.53 100.54 C 45.59 100.11 45.76 99.70 46.02 99.36 C 48.13 95.82 57.78 88.87 62.83 88.61 L 62.90 88.61 C 64.16 88.61 66.41 90.37 66.83 90.97 C 69.24 94.39 65.49 106.44 62.65 110.37 C 61.79 111.61 60.92 112.16 60.05 112.16 Z M 47.99 100.91 C 49.17 102.84 56.76 108.54 59.99 109.64 C 60.74 109.11 62.59 105.96 63.99 100.87 C 65.24 96.41 65.33 93.24 64.77 92.40 C 64.17 91.86 63.50 91.42 62.77 91.09 C 58.20 91.44 48.65 98.87 47.99 100.91 Z" fill="#686766" fill-rule="nonzero" node-id="85" stroke="none" target-height="23.549797" target-width="23.775997" target-x="45.464" target-y="88.6082"></path><path d="M 78.06 112.33 C 77.67 112.30 77.28 112.19 76.94 112.00 C 76.59 111.80 76.29 111.54 76.06 111.22 C 73.34 108.11 69.72 96.78 71.06 91.90 C 71.38 90.70 73.82 89.05 74.52 88.83 C 78.52 87.61 88.82 94.89 91.69 98.83 C 92.75 100.27 92.97 101.46 92.34 102.36 C 90.15 105.55 81.10 111.98 78.34 112.36 L 78.06 112.33 Z M 73.38 92.61 C 72.28 97.14 76.38 108.52 78.13 109.78 C 80.33 109.25 88.13 103.78 90.13 101.05 C 89.86 100.17 87.44 97.44 83.04 94.51 C 79.18 91.94 76.19 90.88 75.22 91.15 C 74.54 91.54 73.92 92.04 73.38 92.61 Z" fill="#686766" fill-rule="nonzero" node-id="87" stroke="none" target-height="24.75" target-width="23.25" target-x="69.72" target-y="87.608"></path><path d="M 88.56 87.38 C 84.07 87.38 79.14 86.69 76.72 85.11 C 75.72 84.43 74.86 81.60 74.87 80.86 C 74.93 76.67 85.05 69.14 89.65 67.62 C 91.35 67.06 92.55 67.22 93.22 68.09 C 95.57 71.16 98.89 81.76 98.37 84.52 C 98.26 84.94 98.04 85.32 97.74 85.63 C 97.43 85.94 97.06 86.17 96.64 86.30 C 94.03 87.12 91.30 87.48 88.56 87.38 Z M 78.16 83.09 C 82.16 85.54 94.22 85.15 95.96 83.88 C 96.13 81.61 93.38 72.61 91.38 69.76 C 90.44 69.76 87.11 71.22 82.98 74.48 C 79.34 77.36 77.41 79.87 77.37 80.88 C 77.52 81.65 77.79 82.40 78.16 83.09 Z" fill="#686766" fill-rule="nonzero" node-id="89" stroke="none" target-height="20.4262" target-width="24.0299" target-x="74.86" target-y="67.058"></path><path d="M 356.94 119.68 C 375.01 119.68 389.66 105.03 389.66 86.96 C 389.66 68.89 375.01 54.24 356.94 54.24 C 338.87 54.24 324.22 68.89 324.22 86.96 C 324.22 105.03 338.87 119.68 356.94 119.68 Z" fill="#000000" fill-rule="nonzero" node-id="91" stroke="none" target-height="65.4397" target-width="65.44" target-x="324.22" target-y="54.2383"></path><path d="M 356.94 112.67 C 371.14 112.67 382.65 101.16 382.65 86.96 C 382.65 72.76 371.14 61.25 356.94 61.25 C 342.74 61.25 331.23 72.76 331.23 86.96 C 331.23 101.16 342.74 112.67 356.94 112.67 Z" fill="#000000" fill-rule="nonzero" node-id="93" stroke="none" target-height="51.4197" target-width="51.419983" target-x="331.23" target-y="61.2483"></path><path d="M 356.94 113.91 C 351.61 113.90 346.41 112.31 341.98 109.34 C 337.56 106.38 334.11 102.16 332.08 97.24 C 330.05 92.31 329.52 86.89 330.56 81.67 C 331.61 76.45 334.18 71.65 337.95 67.88 C 341.72 64.12 346.52 61.56 351.75 60.52 C 356.98 59.49 362.39 60.02 367.31 62.06 C 372.24 64.11 376.44 67.56 379.40 71.99 C 382.36 76.42 383.94 81.63 383.94 86.96 C 383.93 94.11 381.08 100.97 376.01 106.02 C 370.95 111.07 364.09 113.91 356.94 113.91 Z M 356.94 62.50 C 352.10 62.49 347.36 63.92 343.34 66.61 C 339.31 69.29 336.17 73.11 334.31 77.59 C 332.45 82.06 331.97 86.98 332.91 91.73 C 333.85 96.48 336.18 100.84 339.60 104.26 C 343.02 107.69 347.38 110.02 352.13 110.97 C 356.88 111.91 361.80 111.43 366.27 109.58 C 370.75 107.72 374.57 104.58 377.26 100.56 C 379.95 96.53 381.38 91.80 381.38 86.96 C 381.38 80.48 378.80 74.26 374.22 69.68 C 369.63 65.09 363.42 62.51 356.94 62.50 Z" fill="#232323" fill-rule="nonzero" node-id="95" stroke="none" target-height="54.4213" target-width="54.421997" target-x="329.518" target-y="59.4867"></path><path d="M 356.94 90.47 C 358.88 90.47 360.45 88.90 360.45 86.96 C 360.45 85.02 358.88 83.45 356.94 83.45 C 355.00 83.45 353.43 85.02 353.43 86.96 C 353.43 88.90 355.00 90.47 356.94 90.47 Z" fill="#cccccc" fill-rule="nonzero" node-id="97" stroke="none" target-height="7.0200043" target-width="7.0200195" target-x="353.43" target-y="83.4482"></path><path d="M 356.94 94.00 C 360.83 94.00 363.98 90.85 363.98 86.96 C 363.98 83.07 360.83 79.92 356.94 79.92 C 353.05 79.92 349.90 83.07 349.90 86.96 C 349.90 90.85 353.05 94.00 356.94 94.00 Z" fill="#cccccc" fill-opacity="0.040000003" fill-rule="nonzero" group-id="2,6" node-id="103" stroke="none" target-height="14.080002" target-width="14.080017" target-x="349.9" target-y="79.9182"></path><path d="M 356.87 81.15 C 356.32 81.17 355.77 81.11 355.24 80.99 C 351.53 79.71 347.75 68.58 347.73 64.07 C 347.73 62.37 348.23 61.33 349.23 60.98 C 352.63 59.78 362.97 59.89 365.23 61.15 C 365.58 61.37 365.87 61.69 366.06 62.05 C 366.25 62.42 366.35 62.83 366.34 63.25 C 366.69 67.07 363.22 77.59 359.56 80.56 C 358.74 81.01 357.80 81.21 356.87 81.15 Z M 356.02 78.63 C 356.72 78.71 357.43 78.68 358.13 78.55 C 361.43 75.73 364.45 65.24 363.90 63.24 C 362.02 62.53 353.49 62.24 350.27 63.24 C 349.97 64.24 350.56 68.11 352.27 72.52 C 353.76 76.32 355.25 78.34 356.02 78.61 L 356.02 78.63 Z" fill="#686766" fill-rule="nonzero" node-id="107" stroke="none" target-height="21.432304" target-width="18.959991" target-x="347.73" target-y="59.7782"></path><path d="M 339.55 89.47 C 337.13 89.51 334.72 89.22 332.38 88.61 C 330.76 88.09 329.93 87.29 329.90 86.23 C 329.81 82.63 333.11 72.83 335.02 71.03 C 335.34 70.77 335.73 70.59 336.14 70.52 C 336.55 70.44 336.97 70.48 337.36 70.61 C 341.10 71.47 350.03 78.02 351.72 82.42 C 352.16 83.57 351.18 86.17 350.78 86.70 C 349.28 88.68 344.22 89.47 339.55 89.47 Z M 332.38 85.98 C 333.24 86.57 337.11 87.21 341.83 86.98 C 345.89 86.74 348.27 85.98 348.83 85.31 C 349.11 84.67 349.31 84.00 349.41 83.31 C 347.74 79.31 338.70 73.18 336.62 73.09 C 335.27 74.61 332.38 82.61 332.38 85.98 Z" fill="#686766" fill-rule="nonzero" node-id="109" stroke="none" target-height="19.064796" target-width="22.350006" target-x="329.81" target-y="70.4449"></path><path d="M 348.46 112.61 C 348.27 112.61 348.09 112.58 347.91 112.52 C 344.46 111.52 336.16 105.33 335.04 102.96 C 334.89 102.57 334.84 102.15 334.90 101.74 C 334.96 101.33 335.13 100.94 335.38 100.61 C 337.38 97.31 346.38 90.84 351.04 90.61 C 352.31 90.52 354.44 92.28 354.82 92.83 C 357.07 96.03 353.59 107.26 350.95 110.93 C 350.70 111.39 350.34 111.78 349.91 112.07 C 349.47 112.36 348.98 112.55 348.46 112.61 Z M 337.38 102.07 C 338.47 103.74 345.22 108.98 348.38 110.07 C 349.21 109.44 351.01 105.95 352.21 101.38 C 353.21 97.44 353.21 94.93 352.78 94.24 C 352.25 93.76 351.66 93.37 351.02 93.07 C 346.71 93.41 338.10 100.12 337.38 102.07 Z" fill="#686766" fill-rule="nonzero" node-id="111" stroke="none" target-height="22.089699" target-width="22.227997" target-x="334.842" target-y="90.5183"></path><path d="M 365.15 112.75 C 364.77 112.72 364.41 112.61 364.08 112.43 C 363.75 112.25 363.46 112.00 363.24 111.70 C 360.72 108.81 357.34 98.25 358.56 93.70 C 358.88 92.51 361.20 90.99 361.83 90.79 C 365.57 89.64 375.17 96.43 377.83 100.07 C 378.83 101.44 379.04 102.57 378.43 103.45 C 376.43 106.45 367.96 112.45 365.36 112.74 L 365.15 112.75 Z M 360.92 94.46 C 359.92 98.68 363.63 108.95 365.26 110.24 C 367.20 109.71 374.26 104.92 376.26 102.24 C 375.91 101.24 373.16 98.46 369.18 95.91 C 365.76 93.71 363.37 92.91 362.57 93.17 C 361.96 93.52 361.41 93.95 360.92 94.46 Z" fill="#686766" fill-rule="nonzero" node-id="113" stroke="none" target-height="23.109802" target-width="21.700012" target-x="357.34" target-y="89.6382"></path><path d="M 374.89 89.61 C 370.71 89.61 366.12 88.97 363.89 87.50 C 362.89 86.83 362.12 84.15 362.13 83.50 C 362.19 79.59 371.61 72.55 375.90 71.14 C 377.51 70.61 378.65 70.76 379.30 71.61 C 381.49 74.47 384.58 84.34 384.09 86.91 C 383.98 87.32 383.76 87.69 383.46 87.99 C 383.16 88.28 382.79 88.50 382.38 88.61 C 379.96 89.37 377.43 89.71 374.89 89.61 Z M 365.30 85.48 C 369.01 87.75 379.92 87.38 381.65 86.23 C 381.75 84.23 379.37 76.04 377.44 73.28 C 376.44 73.28 372.89 75.06 369.23 78.06 C 366.08 80.64 364.62 82.68 364.58 83.50 C 364.72 84.19 364.96 84.86 365.30 85.49 L 365.30 85.48 Z" fill="#686766" fill-rule="nonzero" node-id="115" stroke="none" target-height="19.101196" target-width="22.459991" target-x="362.12" target-y="70.6082"></path><path d="M 1.51 74.28 L 1.51 84.87 L 22.32 106.57 L 34.47 106.57 L 25.56 52.33 L 11.80 52.33 L 6.85 71.16 L 1.51 74.28 Z" fill="#050505" fill-rule="nonzero" node-id="117" stroke="none" target-height="54.239902" target-width="32.95999" target-x="1.51001" target-y="52.3281"></path><path d="M 204.98 17.92 L 207.60 17.92 C 208.27 17.92 208.93 18.11 209.50 18.46 C 210.07 18.81 210.53 19.32 210.83 19.92 L 222.16 38.03 C 222.45 38.61 222.58 39.26 222.53 39.91 C 222.48 40.56 222.25 41.19 221.88 41.72 C 221.50 42.25 220.99 42.67 220.39 42.94 C 219.79 43.20 219.14 43.30 218.49 43.22 L 206.65 41.81 C 205.80 41.71 205.02 41.31 204.44 40.68 C 203.86 40.06 203.51 39.25 203.47 38.40 L 201.38 21.71 C 201.36 21.22 201.43 20.73 201.60 20.28 C 201.77 19.82 202.03 19.40 202.37 19.05 C 202.71 18.69 203.11 18.41 203.56 18.21 C 204.01 18.02 204.49 17.92 204.98 17.92 Z" fill="#444131" fill-rule="nonzero" node-id="119" stroke="none" target-height="25.3789" target-width="21.220001" target-x="201.357" target-y="17.9182"></path><path d="M 118.74 13.71 L 240.99 2.84 L 265.99 1.22 C 265.99 1.22 333.70 23.35 362.28 39.10 C 390.86 54.85 290.28 54.04 290.28 54.04 L 118.74 30.96 L 118.74 13.71 Z" fill="#444131" fill-opacity="0.64000005" fill-rule="nonzero" group-id="3,7" node-id="125" stroke="none" target-height="53.63004" target-width="272.12" target-x="118.74" target-y="1.21826"></path><path d="M 467.30 79.17 C 467.30 79.17 410.03 38.92 351.30 34.76 C 320.97 22.93 287.03 8.98 264.56 4.12 C 263.56 3.91 274.56 2.98 273.56 2.78 C 267.78 1.62 251.94 1.51 246.56 1.33 C 195.78 -0.38 12.01 27.72 12.01 27.72 L 6.08 54.33 L 14.25 54.33 L 13.37 60.47 L 4.42 60.47 L 1.50 71.28 L 10.62 75.28 L 11.00 85.69 L 30.49 86.97 C 30.49 65.59 47.82 47.08 69.20 47.08 C 90.58 47.08 106.73 65.59 106.73 86.97 C 106.73 97.20 102.16 113.42 102.16 113.42 L 324.69 113.42 C 324.69 113.42 320.30 98.58 320.30 89.35 C 320.30 69.25 336.59 51.78 356.69 51.78 C 376.79 51.78 393.09 69.25 393.09 89.35 C 393.09 98.58 389.88 113.42 389.88 113.42 L 461.56 113.42 L 469.47 106.55 L 462.59 86.68 L 467.30 79.17 Z M 311.70 42.61 L 131.70 28.61 L 134.44 20.39 C 134.44 20.39 211.38 8.61 246.57 9.09 C 281.76 9.57 335.87 37.88 335.87 37.88 L 311.70 42.61 Z" fill="#f9d500" fill-rule="nonzero" node-id="129" stroke="none" target-height="113.79983" target-width="467.97" target-x="1.5" target-y="-0.381831"></path><path d="M 462.03 114.61 L 388.38 114.61 L 388.70 113.11 C 388.70 112.96 391.89 98.29 391.89 89.30 C 391.89 69.61 375.79 52.97 356.73 52.97 C 337.67 52.97 321.54 69.61 321.54 89.34 C 321.54 98.29 325.83 112.91 325.88 113.06 L 326.38 114.61 L 100.54 114.61 L 100.98 113.03 C 100.98 112.87 105.50 96.86 105.50 86.92 C 105.50 65.61 89.22 48.27 69.21 48.27 C 48.90 48.27 31.74 65.97 31.74 86.92 L 31.74 91.47 L 29.26 91.47 L 29.26 88.08 L 9.81 86.80 L 9.38 76.09 L 0.00 71.97 L 3.45 59.23 L 12.27 59.23 L 12.79 55.57 L 4.51 55.57 L 10.99 26.61 L 11.83 26.48 C 13.67 26.20 196.31 -1.66 246.61 0.08 C 247.61 0.08 249.10 0.15 250.78 0.18 C 258.07 0.35 269.09 0.60 273.86 1.56 L 274.86 1.77 L 274.86 2.86 C 274.86 3.86 274.66 4.03 271.19 4.44 C 290.19 9.44 315.25 19.27 339.54 28.81 C 343.54 30.40 347.61 31.99 351.54 33.53 C 409.82 37.74 467.36 77.74 467.94 78.14 L 468.94 78.82 L 463.94 86.82 L 470.94 106.92 L 462.03 114.61 Z M 391.38 112.17 L 461.08 112.17 L 468.01 106.17 L 461.20 86.53 L 465.60 79.53 C 457.82 74.29 404.76 39.80 351.23 36.01 L 350.87 35.93 L 338.66 31.14 C 311.66 20.52 283.71 9.54 264.32 5.35 L 263.32 5.12 L 263.32 4.04 C 263.32 3.59 263.38 3.31 263.73 3.10 C 259.25 2.88 254.35 2.76 250.73 2.68 C 249.04 2.68 247.59 2.61 246.54 2.57 C 198.22 0.99 26.61 26.77 13.05 28.82 L 7.65 53.10 L 15.65 53.10 L 14.43 61.71 L 5.38 61.71 L 2.99 70.61 L 11.84 74.50 L 12.20 84.57 L 29.28 85.61 C 29.99 63.90 47.98 45.80 69.21 45.80 C 90.44 45.80 107.97 64.25 107.97 86.93 C 107.97 95.45 104.97 107.79 103.79 112.14 L 323.05 112.14 C 321.91 108.03 319.05 96.93 319.05 89.31 C 319.05 68.31 336.28 50.50 356.68 50.50 C 377.08 50.50 394.31 68.27 394.31 89.31 C 394.32 96.97 392.21 108.14 391.38 112.17 Z M 311.78 43.88 L 311.61 43.88 L 130.03 29.78 L 133.51 19.33 L 134.26 19.22 C 135.03 19.10 211.72 7.39 246.58 7.85 C 281.65 8.31 335.90 36.49 336.45 36.78 L 339.57 38.41 L 311.78 43.88 Z M 133.38 27.55 L 311.62 41.39 L 332.08 37.39 C 319.96 31.39 276.15 10.75 246.54 10.39 C 213.70 9.96 143.42 20.39 135.38 21.61 L 133.38 27.55 Z" fill="#050505" fill-rule="nonzero" node-id="131" stroke="none" target-height="116.269775" target-width="470.94" target-x="0" target-y="-1.66177"></path><path d="M 446.58 86.61 C 434.29 59.89 373.97 43.95 356.49 42.54 C 336.18 40.91 313.49 48.04 313.25 48.11 L 313.13 48.11 L 313.01 48.11 C 311.38 47.98 150.92 34.27 132.38 33.37 C 124.68 33.01 117.38 32.61 110.38 32.22 C 70.82 30.03 42.24 28.46 16.92 36.15 L 16.56 34.96 C 42.09 27.21 70.76 28.79 110.45 30.96 C 117.45 31.34 124.74 31.75 132.38 32.12 C 150.78 33.01 307.76 46.41 312.99 46.85 C 314.81 46.29 336.81 39.67 356.58 41.27 C 374.23 42.69 435.19 58.88 447.70 86.05 L 446.58 86.61 Z" fill="#050505" fill-rule="nonzero" node-id="133" stroke="none" target-height="59.4" target-width="431.14" target-x="16.56" target-y="27.2082"></path><path d="M 9.62 37.61 L 15.57 43.81 L 13.35 53.24 L 6.85 53.24 L 9.62 37.61 Z" fill="#f72900" fill-rule="nonzero" node-id="135" stroke="none" target-height="15.630001" target-width="8.72002" target-x="6.84998" target-y="37.6082"></path><path d="M 13.84 53.86 L 6.11 53.86 L 9.22 36.30 L 16.22 43.62 L 13.84 53.86 Z M 7.59 52.61 L 12.86 52.61 L 14.86 43.99 L 9.99 38.91 L 7.59 52.61 Z" fill="#0a0a0a" fill-rule="nonzero" node-id="137" stroke="none" target-height="17.559998" target-width="10.110009" target-x="6.10999" target-y="36.2983"></path><path d="M 14.01 52.66 L 13.76 53.88 L 42.59 59.68 L 42.84 58.46 L 14.01 52.66 Z" fill="#050505" fill-rule="nonzero" node-id="139" stroke="none" target-height="7.0186996" target-width="29.076399" target-x="13.7628" target-y="52.6601"></path><path d="M 321.97 101.82 L 104.99 101.82 L 104.99 103.06 L 321.97 103.06 L 321.97 101.82 Z" fill="#050505" fill-rule="nonzero" node-id="141" stroke="none" target-height="1.2399979" target-width="216.98001" target-x="104.99" target-y="101.818"></path><path d="M 313.00 102.45 L 311.76 102.43 L 312.44 49.96 L 311.12 46.38 L 303.57 25.35 L 304.74 24.93 L 313.68 49.75 L 313.68 49.87 L 313.00 102.45 Z" fill="#050505" fill-rule="nonzero" node-id="143" stroke="none" target-height="77.5198" target-width="10.109985" target-x="303.57" target-y="24.9282"></path><path d="M 198.26 102.68 L 176.33 49.43 L 184.40 37.16 L 190.46 32.09 L 192.70 13.41 L 193.93 13.56 L 191.63 32.72 L 185.27 38.05 L 177.73 49.56 L 199.40 102.21 L 198.26 102.68 Z" fill="#050505" fill-rule="nonzero" node-id="145" stroke="none" target-height="89.2698" target-width="23.069992" target-x="176.33" target-y="13.4082"></path><path d="M 119.38 32.93 L 115.89 25.87 C 110.23 25.62 40.77 22.87 11.07 32.42 L 10.69 31.24 C 41.69 21.24 115.58 24.61 116.32 24.65 L 116.68 24.65 L 120.49 32.36 L 119.38 32.93 Z" fill="#050505" fill-rule="nonzero" node-id="147" stroke="none" target-height="11.690001" target-width="109.799995" target-x="10.69" target-y="21.2381"></path><path d="M 230.32 98.00 L 155.25 93.20 L 129.19 48.41 L 209.77 53.71 L 209.69 54.95 L 131.43 49.80 L 155.99 92.01 L 230.40 96.76 L 230.32 98.00 Z" fill="#050505" fill-rule="nonzero" node-id="149" stroke="none" target-height="49.59" target-width="101.20999" target-x="129.19" target-y="48.4082"></path><path d="M 203.85 54.04 L 177.44 52.13 L 176.33 49.43 L 179.14 45.15 L 201.38 46.76 L 203.85 54.04 Z M 178.29 50.95 L 202.08 52.67 L 200.48 47.94 L 179.78 46.43 L 177.78 49.56 L 178.29 50.95 Z" fill="#050505" fill-rule="nonzero" node-id="151" stroke="none" target-height="8.889999" target-width="27.520004" target-x="176.33" target-y="45.1482"></path><path d="M 459.05 74.79 L 438.58 74.34 L 384.37 65.94 L 384.56 64.71 L 438.69 73.11 L 459.08 73.55 L 459.05 74.79 Z" fill="#050505" fill-rule="nonzero" node-id="153" stroke="none" target-height="10.079903" target-width="74.70999" target-x="384.37" target-y="64.7083"></path><path d="M 403.29 103.11 L 402.05 103.03 C 402.20 100.74 403.30 80.42 397.93 72.90 L 398.93 72.18 C 404.44 79.89 403.53 99.30 403.29 103.11 Z" fill="#050505" fill-rule="nonzero" node-id="155" stroke="none" target-height="30.929802" target-width="6.51001" target-x="397.93" target-y="72.1782"></path><path d="M 447.14 86.33 L 462.59 86.67 L 469.47 106.54 L 439.77 105.75 L 447.14 86.33 Z" fill="#f9d500" fill-rule="nonzero" node-id="157" stroke="none" target-height="20.2099" target-width="29.700012" target-x="439.77" target-y="86.3281"></path><path d="M 470.38 107.18 L 438.91 106.34 L 446.75 85.70 L 463.06 86.06 L 470.38 107.18 Z M 440.69 105.18 L 468.62 105.92 L 462.17 87.31 L 447.60 86.99 L 440.69 105.18 Z" fill="#050505" fill-rule="nonzero" node-id="159" stroke="none" target-height="21.479805" target-width="31.470001" target-x="438.91" target-y="85.6982"></path><path d="M 445.16 92.23 L 453.18 92.56 L 450.45 105.75 L 439.77 105.75 L 445.16 92.23 Z" fill="#050505" fill-rule="nonzero" node-id="161" stroke="none" target-height="13.519699" target-width="13.410004" target-x="439.77" target-y="92.2283"></path><path d="M 411.81 58.00 L 422.38 59.93 C 422.38 59.93 444.38 64.50 451.64 73.72 L 438.59 73.72 C 438.59 73.72 423.75 63.46 411.81 58.00 Z" fill="#d8d2d2" fill-rule="nonzero" node-id="163" stroke="none" target-height="15.720001" target-width="39.830017" target-x="411.81" target-y="57.9983"></path><path d="M 452.92 74.34 L 438.38 74.34 L 438.22 74.23 C 438.07 74.13 423.29 63.94 411.54 58.56 L 407.02 56.50 L 422.48 59.32 C 423.40 59.51 444.85 64.04 452.12 73.32 L 452.92 74.34 Z M 438.78 73.10 L 450.30 73.10 C 442.55 64.82 422.47 60.58 422.30 60.54 L 416.19 59.42 C 423.97 63.56 431.51 68.12 438.78 73.10 Z" fill="#050505" fill-rule="nonzero" node-id="165" stroke="none" target-height="17.840004" target-width="45.900024" target-x="407.02" target-y="56.4983"></path><path d="M 462.24 86.10 L 451.05 93.70 L 451.74 94.73 L 462.93 87.12 L 462.24 86.10 Z" fill="#050505" fill-rule="nonzero" node-id="167" stroke="none" target-height="8.628799" target-width="11.8880005" target-x="451.045" target-y="86.0981"></path><path d="M 426.94 66.24 C 426.94 66.24 436.71 66.91 438.59 68.77 C 439.99 70.28 441.23 71.94 442.27 73.72 L 438.59 73.72 L 426.94 66.24 Z" fill="#b5b5b5" fill-rule="nonzero" node-id="169" stroke="none" target-height="7.4800034" target-width="15.329987" target-x="426.94" target-y="66.2383"></path><path d="M 443.38 74.34 L 438.38 74.34 L 424.54 65.45 L 426.95 65.62 C 427.95 65.69 437.01 66.36 438.95 68.33 C 440.39 69.88 441.66 71.58 442.73 73.41 L 443.38 74.34 Z M 438.80 73.10 L 441.19 73.10 C 440.32 71.71 439.32 70.40 438.19 69.21 C 437.19 68.21 432.97 67.48 429.44 67.08 L 438.80 73.10 Z" fill="#050505" fill-rule="nonzero" node-id="171" stroke="none" target-height="8.890106" target-width="18.839996" target-x="424.54" target-y="65.4482"></path><path d="M 30.88 24.33 L 29.64 24.33 L 29.64 27.96 L 30.88 27.96 L 30.88 24.33 Z" fill="#050505" fill-rule="nonzero" node-id="173" stroke="none" target-height="3.6299992" target-width="1.2399998" target-x="29.64" target-y="24.3281"></path><path d="M 195.64 94.69 L 159.70 87.66 L 143.12 53.36 L 208.90 54.86 L 131.09 49.57 L 156.39 93.07 L 195.64 94.69 Z" fill="#050505" fill-opacity="0.09" fill-rule="nonzero" group-id="4,8" node-id="179" stroke="none" target-height="45.120003" target-width="77.81" target-x="131.09" target-y="49.5681"></path><path d="M 117.58 27.15 L 117.50 28.39 L 131.65 29.25 L 131.73 28.02 L 117.58 27.15 Z" fill="#050505" fill-rule="nonzero" node-id="183" stroke="none" target-height="2.1034012" target-width="14.228996" target-x="117.499" target-y="27.1505"></path><path d="M 356.07 42.31 L 351.09 36.60 L 335.95 38.49 L 335.80 37.26 L 351.59 35.29 L 357.00 41.50 L 356.07 42.31 Z" fill="#050505" fill-rule="nonzero" node-id="185" stroke="none" target-height="7.0200005" target-width="21.200012" target-x="335.8" target-y="35.2881"></path><path d="M 13.65 54.84 L 12.43 54.61 L 16.04 35.94 L 10.40 33.70 L 10.86 32.55 L 17.45 35.17 L 13.65 54.84 Z" fill="#0a0a0a" fill-rule="nonzero" node-id="187" stroke="none" target-height="22.289997" target-width="7.050001" target-x="10.4" target-y="32.5483"></path></svg>