<?xml version="1.0" standalone="no"?><!DOCTYPE svg PUBLIC "-//W3C//DTD SVG 1.1//EN" "http://www.w3.org/Graphics/SVG/1.1/DTD/svg11.dtd"><svg height="141" node-id="1" sillyvg="true" template-height="141" template-width="465" version="1.1" viewBox="0 0 465 141" width="465" xmlns="http://www.w3.org/2000/svg" xmlns:xlink="http://www.w3.org/1999/xlink"><defs node-id="118"></defs><path d="M 399.25 124.99 L 135.01 122.43 L 81.14 122.43 L 56.77 116.01 L 56.77 60.86 L 399.25 60.86 L 440.30 90.36 L 445.43 128.84 L 399.25 124.99 Z" fill="#3d3d3d" fill-rule="nonzero" node-id="120" stroke="none" target-height="67.98039" target-width="388.66" target-x="56.77" target-y="60.8596"></path><path d="M 106.79 140.39 C 126.63 140.39 142.71 124.31 142.71 104.47 C 142.71 84.63 126.63 68.55 106.79 68.55 C 86.95 68.55 70.87 84.63 70.87 104.47 C 70.87 124.31 86.95 140.39 106.79 140.39 Z" fill="#000000" fill-rule="nonzero" node-id="122" stroke="none" target-height="71.8403" target-width="71.840004" target-x="70.87" target-y="68.5497"></path><path d="M 106.79 132.69 C 122.38 132.69 135.01 120.06 135.01 104.47 C 135.01 88.88 122.38 76.25 106.79 76.25 C 91.20 76.25 78.57 88.88 78.57 104.47 C 78.57 120.06 91.20 132.69 106.79 132.69 Z" fill="#000000" fill-rule="nonzero" node-id="124" stroke="none" target-height="56.4402" target-width="56.440094" target-x="78.5699" target-y="76.2498"></path><path d="M 106.79 133.97 C 100.95 133.97 95.25 132.24 90.40 129.00 C 85.55 125.76 81.77 121.15 79.54 115.76 C 77.30 110.37 76.72 104.44 77.86 98.71 C 79.00 92.99 81.80 87.74 85.93 83.61 C 90.06 79.48 95.31 76.67 101.03 75.54 C 106.76 74.40 112.69 74.98 118.08 77.22 C 123.47 79.45 128.08 83.23 131.32 88.08 C 134.56 92.93 136.29 98.64 136.29 104.47 C 136.28 112.29 133.17 119.79 127.64 125.32 C 122.11 130.85 114.61 133.96 106.79 133.97 Z M 106.79 77.53 C 101.46 77.53 96.25 79.11 91.82 82.07 C 87.39 85.03 83.94 89.24 81.90 94.16 C 79.86 99.08 79.33 104.50 80.37 109.72 C 81.41 114.95 83.97 119.75 87.74 123.52 C 91.51 127.29 96.31 129.85 101.53 130.89 C 106.76 131.93 112.18 131.40 117.10 129.36 C 122.02 127.32 126.23 123.87 129.19 119.44 C 132.15 115.01 133.73 109.80 133.73 104.47 C 133.71 97.33 130.87 90.49 125.82 85.44 C 120.77 80.39 113.93 77.55 106.79 77.53 Z" fill="#d9ea00" fill-rule="nonzero" node-id="126" stroke="none" target-height="59.5717" target-width="59.571396" target-x="76.7186" target-y="74.3983"></path><path d="M 107.27 89.32 C 110.10 89.32 111.89 77.16 111.89 77.16 L 102.06 77.16 C 102.06 77.16 103.44 89.32 107.27 89.32 Z" fill="#000000" fill-rule="nonzero" node-id="128" stroke="none" target-height="12.160004" target-width="9.830002" target-x="102.06" target-y="77.1597"></path><path d="M 107.27 90.60 C 102.65 90.60 101.14 80.42 100.78 77.31 L 100.62 75.88 L 113.38 75.88 L 113.16 77.35 C 111.46 88.88 108.74 90.60 107.27 90.60 Z M 103.52 78.44 C 104.24 83.17 105.83 87.92 107.22 88.03 C 108.15 87.53 109.54 83.26 110.39 78.44 L 103.52 78.44 Z" fill="#e3e800" fill-rule="nonzero" node-id="130" stroke="none" target-height="14.720001" target-width="12.7599945" target-x="100.62" target-y="75.8796"></path><path d="M 106.79 104.47 L 106.05 89.24 L 108.08 89.24 L 106.79 104.47 Z" fill="#000000" fill-rule="nonzero" node-id="132" stroke="none" target-height="15.230301" target-width="2.0299988" target-x="106.05" target-y="89.2397"></path><path d="M 108.07 104.58 L 105.51 104.53 L 104.70 87.95 L 109.48 87.95 L 108.07 104.58 Z" fill="#e3e800" fill-rule="nonzero" node-id="134" stroke="none" target-height="16.630302" target-width="4.7800064" target-x="104.7" target-y="87.9497"></path><path d="M 97.42 92.56 C 99.59 90.74 93.15 80.27 93.15 80.27 L 85.61 86.60 C 85.61 86.60 94.48 95.02 97.42 92.56 Z" fill="#000000" fill-rule="nonzero" node-id="136" stroke="none" target-height="14.75" target-width="13.979996" target-x="85.61" target-y="80.2697"></path><path d="M 96.07 94.28 C 92.19 94.28 86.61 89.28 84.73 87.53 L 83.73 86.53 L 93.50 78.32 L 94.28 79.59 C 100.39 89.52 99.41 92.59 98.28 93.53 C 97.66 94.05 96.87 94.31 96.07 94.28 Z M 87.56 86.64 C 91.14 89.79 95.41 92.41 96.56 91.64 C 96.95 90.64 95.24 86.43 92.83 82.25 L 87.56 86.64 Z" fill="#e3e800" fill-rule="nonzero" node-id="138" stroke="none" target-height="15.994202" target-width="16.659996" target-x="83.73" target-y="78.3197"></path><path d="M 106.79 104.47 L 96.43 93.28 L 97.99 91.97 L 106.79 104.47 Z" fill="#000000" fill-rule="nonzero" node-id="140" stroke="none" target-height="12.500298" target-width="10.3601" target-x="96.4299" target-y="91.9697"></path><path d="M 105.85 105.34 L 94.57 93.16 L 98.23 90.09 L 107.84 103.73 L 105.85 105.34 Z" fill="#e3e800" fill-rule="nonzero" node-id="142" stroke="none" target-height="15.250298" target-width="13.269897" target-x="94.5701" target-y="90.0897"></path><path d="M 91.96 101.37 C 92.45 98.58 80.79 94.71 80.79 94.71 L 79.08 104.39 C 79.08 104.39 91.29 105.11 91.96 101.37 Z" fill="#000000" fill-rule="nonzero" node-id="144" stroke="none" target-height="10.400299" target-width="13.369995" target-x="79.08" target-y="94.7097"></path><path d="M 81.85 105.76 C 80.68 105.76 79.67 105.76 79.00 105.67 L 77.56 105.58 L 79.78 93.02 L 81.19 93.49 C 92.25 97.17 93.47 100.14 93.19 101.59 C 92.59 105.16 86.12 105.76 81.85 105.76 Z M 80.59 103.17 C 85.37 103.29 90.32 102.54 90.68 101.17 C 90.35 100.17 86.38 98.05 81.79 96.38 L 80.59 103.17 Z" fill="#e3e800" fill-rule="nonzero" node-id="146" stroke="none" target-height="12.740303" target-width="15.910004" target-x="77.5601" target-y="93.0197"></path><path d="M 106.79 104.47 L 91.66 102.56 L 92.01 100.56 L 106.79 104.47 Z" fill="#000000" fill-rule="nonzero" node-id="148" stroke="none" target-height="3.9100037" target-width="15.129997" target-x="91.66" target-y="100.56"></path><path d="M 106.63 105.74 L 90.17 103.66 L 90.99 98.96 L 107.12 103.23 L 106.63 105.74 Z" fill="#e3e800" fill-rule="nonzero" node-id="150" stroke="none" target-height="6.7802963" target-width="16.950104" target-x="90.1699" target-y="98.9597"></path><path d="M 93.43 111.63 C 92.02 109.18 80.59 113.71 80.59 113.71 L 85.51 122.23 C 85.51 122.23 95.35 114.95 93.43 111.63 Z" fill="#000000" fill-rule="nonzero" node-id="152" stroke="none" target-height="13.050003" target-width="14.760002" target-x="80.59" target-y="109.18"></path><path d="M 85.12 124.11 L 78.74 113.11 L 80.12 112.56 C 90.96 108.27 93.81 109.76 94.54 111.04 C 96.85 115.04 88.80 121.44 86.28 123.31 L 85.12 124.11 Z M 82.46 114.37 L 85.89 120.32 C 89.62 117.32 92.94 113.58 92.35 112.32 C 91.46 111.77 86.99 112.72 82.46 114.37 Z" fill="#e3e800" fill-rule="nonzero" node-id="154" stroke="none" target-height="15.840004" target-width="18.11" target-x="78.74" target-y="108.27"></path><path d="M 106.79 104.47 L 93.97 112.73 L 92.96 110.97 L 106.79 104.47 Z" fill="#000000" fill-rule="nonzero" node-id="156" stroke="none" target-height="8.260002" target-width="13.830002" target-x="92.96" target-y="104.47"></path><path d="M 93.54 114.54 L 91.15 110.41 L 106.25 103.31 L 107.49 105.55 L 93.54 114.54 Z" fill="#e3e800" fill-rule="nonzero" node-id="158" stroke="none" target-height="11.230003" target-width="16.339996" target-x="91.15" target-y="103.31"></path><path d="M 101.18 118.54 C 98.52 117.54 92.68 128.39 92.68 128.39 L 101.92 131.75 C 101.92 131.75 104.76 119.85 101.18 118.54 Z" fill="#000000" fill-rule="nonzero" node-id="160" stroke="none" target-height="14.209999" target-width="12.080101" target-x="92.6799" target-y="117.54"></path><path d="M 102.82 133.45 L 90.82 129.08 L 91.52 127.78 C 97.07 117.52 100.21 116.83 101.59 117.34 C 105.93 118.92 103.88 129.00 103.14 132.05 L 102.82 133.45 Z M 94.52 127.70 L 100.97 130.04 C 101.90 125.36 102.03 120.35 100.77 119.77 C 99.72 119.92 96.95 123.46 94.52 127.70 Z" fill="#e3e800" fill-rule="nonzero" node-id="162" stroke="none" target-height="16.619995" target-width="15.109901" target-x="90.8201" target-y="116.83"></path><path d="M 106.79 104.47 L 102.28 119.04 L 100.37 118.34 L 106.79 104.47 Z" fill="#000000" fill-rule="nonzero" node-id="164" stroke="none" target-height="14.57" target-width="6.419998" target-x="100.37" target-y="104.47"></path><path d="M 103.11 120.70 L 98.62 119.07 L 105.63 103.93 L 108.02 104.85 L 103.11 120.70 Z" fill="#e3e800" fill-rule="nonzero" node-id="166" stroke="none" target-height="16.769997" target-width="9.399994" target-x="98.62" target-y="103.93"></path><path d="M 111.53 118.87 C 108.87 119.87 111.34 131.87 111.34 131.87 L 120.58 128.51 C 120.58 128.51 115.18 117.56 111.53 118.87 Z" fill="#000000" fill-rule="nonzero" node-id="168" stroke="none" target-height="14.309998" target-width="11.709999" target-x="108.87" target-y="117.56"></path><path d="M 110.38 133.59 L 110.08 132.13 C 107.74 120.71 109.71 118.13 111.08 117.66 C 115.42 116.08 120.32 125.13 121.72 127.94 L 122.36 129.22 L 110.38 133.59 Z M 112.01 120.11 C 111.32 120.89 111.48 125.46 112.32 130.20 L 118.77 127.86 C 116.48 123.62 113.39 119.69 112.01 120.11 Z" fill="#e3e800" fill-rule="nonzero" node-id="170" stroke="none" target-height="17.509995" target-width="14.620003" target-x="107.74" target-y="116.08"></path><path d="M 106.79 104.47 L 112.70 118.53 L 110.79 119.22 L 106.79 104.47 Z" fill="#000000" fill-rule="nonzero" node-id="172" stroke="none" target-height="14.75" target-width="5.909996" target-x="106.79" target-y="104.47"></path><path d="M 109.92 120.91 L 105.56 104.80 L 107.98 103.97 L 114.41 119.27 L 109.92 120.91 Z" fill="#e3e800" fill-rule="nonzero" node-id="174" stroke="none" target-height="16.940002" target-width="8.850006" target-x="105.56" target-y="103.97"></path><path d="M 119.67 112.46 C 118.26 114.91 127.89 122.54 127.89 122.54 L 132.81 114.02 C 132.81 114.02 121.59 109.11 119.67 112.46 Z" fill="#000000" fill-rule="nonzero" node-id="176" stroke="none" target-height="13.43" target-width="14.549995" target-x="118.26" target-y="109.11"></path><path d="M 128.26 124.47 L 127.10 123.54 C 117.96 116.30 117.83 113.09 118.56 111.82 C 120.87 107.82 130.44 111.59 133.32 112.82 L 134.64 113.40 L 128.26 124.47 Z M 120.81 113.11 C 120.81 114.11 123.81 117.54 127.54 120.64 L 130.97 114.70 C 126.52 112.91 121.61 111.91 120.81 113.11 Z" fill="#e3e800" fill-rule="nonzero" node-id="178" stroke="none" target-height="16.650002" target-width="16.809998" target-x="117.83" target-y="107.82"></path><path d="M 106.79 104.47 L 120.36 111.44 L 119.34 113.20 L 106.79 104.47 Z" fill="#000000" fill-rule="nonzero" node-id="180" stroke="none" target-height="8.729996" target-width="13.57" target-x="106.79" target-y="104.47"></path><path d="M 119.75 115.05 L 106.06 105.52 L 107.38 103.33 L 122.14 110.91 L 119.75 115.05 Z" fill="#e3e800" fill-rule="nonzero" node-id="182" stroke="none" target-height="11.720001" target-width="16.080002" target-x="106.06" target-y="103.33"></path><path d="M 121.80 102.31 C 122.29 105.09 134.57 104.75 134.57 104.75 L 132.86 95.11 C 132.86 95.11 121.18 98.53 121.80 102.31 Z" fill="#000000" fill-rule="nonzero" node-id="184" stroke="none" target-height="9.9804" target-width="13.390007" target-x="121.18" target-y="95.1096"></path><path d="M 132.51 106.11 C 122.69 106.11 120.77 103.94 120.51 102.58 C 119.71 98.03 129.51 94.77 132.51 93.88 L 133.89 93.47 L 136.10 106.04 L 134.62 106.04 L 132.51 106.11 Z M 123.05 102.11 C 123.71 102.94 128.12 103.57 132.98 103.57 L 133.05 103.57 L 131.85 96.81 C 127.33 98.26 122.93 100.65 123.05 102.03 L 123.05 102.11 Z" fill="#e3e800" fill-rule="nonzero" node-id="186" stroke="none" target-height="12.640297" target-width="16.390007" target-x="119.71" target-y="93.4697"></path><path d="M 106.79 104.47 L 121.66 101.09 L 122.02 103.09 L 106.79 104.47 Z" fill="#000000" fill-rule="nonzero" node-id="188" stroke="none" target-height="3.380005" target-width="15.229996" target-x="106.79" target-y="101.09"></path><path d="M 106.91 105.75 L 106.51 103.22 L 122.69 99.54 L 123.52 104.24 L 106.91 105.75 Z" fill="#e3e800" fill-rule="nonzero" node-id="190" stroke="none" target-height="6.2102966" target-width="17.009995" target-x="106.51" target-y="99.5397"></path><path d="M 116.90 93.17 C 119.06 94.99 128.25 86.83 128.25 86.83 L 120.72 80.50 C 120.72 80.50 113.96 90.71 116.90 93.17 Z" fill="#000000" fill-rule="nonzero" node-id="192" stroke="none" target-height="14.489899" target-width="14.290001" target-x="113.96" target-y="80.4998"></path><path d="M 117.66 94.66 C 117.09 94.69 116.52 94.51 116.07 94.15 C 112.53 91.15 117.91 82.41 119.65 79.80 L 120.44 78.60 L 130.21 86.80 L 129.10 87.80 C 122.92 93.28 119.52 94.66 117.66 94.66 Z M 117.72 92.19 C 118.72 92.40 122.62 89.98 126.31 86.88 L 121.06 82.47 C 118.53 86.51 116.70 91.17 117.68 92.11 L 117.72 92.19 Z" fill="#e3e800" fill-rule="nonzero" node-id="194" stroke="none" target-height="16.0895" target-width="17.680008" target-x="112.53" target-y="78.5996"></path><path d="M 106.79 104.47 L 116.01 92.32 L 117.57 93.63 L 106.79 104.47 Z" fill="#000000" fill-rule="nonzero" node-id="196" stroke="none" target-height="12.150299" target-width="10.779999" target-x="106.79" target-y="92.3197"></path><path d="M 107.70 105.37 L 105.77 103.69 L 115.80 90.47 L 119.46 93.54 L 107.70 105.37 Z" fill="#e3e800" fill-rule="nonzero" node-id="198" stroke="none" target-height="14.900299" target-width="13.690002" target-x="105.77" target-y="90.4697"></path><path d="M 106.79 108.32 C 108.92 108.32 110.64 106.60 110.64 104.47 C 110.64 102.34 108.92 100.62 106.79 100.62 C 104.66 100.62 102.94 102.34 102.94 104.47 C 102.94 106.60 104.66 108.32 106.79 108.32 Z" fill="#cccccc" fill-rule="nonzero" node-id="200" stroke="none" target-height="7.699997" target-width="7.699997" target-x="102.94" target-y="100.62"></path><path d="M 381.29 140.38 C 399.71 140.38 414.64 125.45 414.64 107.03 C 414.64 88.61 399.71 73.68 381.29 73.68 C 362.87 73.68 347.94 88.61 347.94 107.03 C 347.94 125.45 362.87 140.38 381.29 140.38 Z" fill="#000000" fill-rule="nonzero" node-id="202" stroke="none" target-height="66.7003" target-width="66.70001" target-x="347.94" target-y="73.6797"></path><path d="M 381.29 133.23 C 395.76 133.23 407.49 121.50 407.49 107.03 C 407.49 92.56 395.76 80.83 381.29 80.83 C 366.82 80.83 355.09 92.56 355.09 107.03 C 355.09 121.50 366.82 133.23 381.29 133.23 Z" fill="#000000" fill-rule="nonzero" node-id="204" stroke="none" target-height="52.4003" target-width="52.399994" target-x="355.09" target-y="80.8297"></path><path d="M 381.29 134.52 C 375.85 134.52 370.54 132.91 366.02 129.89 C 361.50 126.87 357.97 122.57 355.89 117.55 C 353.81 112.53 353.27 107.00 354.33 101.67 C 355.39 96.33 358.01 91.44 361.85 87.59 C 365.70 83.75 370.59 81.13 375.93 80.07 C 381.26 79.01 386.79 79.55 391.81 81.63 C 396.83 83.71 401.13 87.24 404.15 91.76 C 407.17 96.28 408.78 101.59 408.78 107.03 C 408.77 114.32 405.87 121.31 400.72 126.46 C 395.57 131.61 388.58 134.51 381.29 134.52 Z M 381.29 82.11 C 376.36 82.10 371.54 83.56 367.44 86.29 C 363.33 89.03 360.14 92.92 358.25 97.47 C 356.36 102.03 355.86 107.04 356.81 111.87 C 357.77 116.71 360.14 121.15 363.63 124.64 C 367.11 128.13 371.55 130.50 376.39 131.47 C 381.22 132.43 386.23 131.94 390.79 130.06 C 395.35 128.17 399.24 124.98 401.98 120.88 C 404.72 116.78 406.18 111.96 406.18 107.03 C 406.17 100.43 403.55 94.10 398.88 89.43 C 394.22 84.76 387.89 82.13 381.29 82.11 Z" fill="#d9ea00" fill-rule="nonzero" node-id="206" stroke="none" target-height="55.512802" target-width="55.513" target-x="353.267" target-y="79.0072"></path><path d="M 381.74 92.97 C 384.36 92.97 386.03 81.68 386.03 81.68 L 376.89 81.68 C 376.89 81.68 378.18 92.97 381.74 92.97 Z" fill="#000000" fill-rule="nonzero" node-id="208" stroke="none" target-height="11.290001" target-width="9.139984" target-x="376.89" target-y="81.6797"></path><path d="M 381.74 94.25 C 377.37 94.25 375.95 84.74 375.62 81.82 L 375.46 80.39 L 387.51 80.39 L 387.30 81.86 C 386.46 87.51 384.82 94.25 381.74 94.25 Z M 378.36 82.96 C 379.06 87.52 380.55 91.51 381.66 91.68 C 382.51 91.13 383.75 87.27 384.52 82.96 L 378.36 82.96 Z" fill="#e3e800" fill-rule="nonzero" node-id="210" stroke="none" target-height="13.8601" target-width="12.050018" target-x="375.46" target-y="80.3896"></path><path d="M 381.29 107.03 L 380.60 92.89 L 382.49 92.89 L 381.29 107.03 Z" fill="#000000" fill-rule="nonzero" node-id="212" stroke="none" target-height="14.140396" target-width="1.8899841" target-x="380.6" target-y="92.8896"></path><path d="M 382.57 107.14 L 380.01 107.10 L 379.25 91.61 L 383.88 91.61 L 382.57 107.14 Z" fill="#e3e800" fill-rule="nonzero" node-id="214" stroke="none" target-height="15.530403" target-width="4.630005" target-x="379.25" target-y="91.6096"></path><path d="M 372.59 95.97 C 374.59 94.28 368.59 84.57 368.59 84.57 L 361.59 90.44 C 361.59 90.44 369.86 98.26 372.59 95.97 Z" fill="#000000" fill-rule="nonzero" node-id="216" stroke="none" target-height="13.689995" target-width="13" target-x="361.59" target-y="84.5697"></path><path d="M 371.34 97.66 C 367.70 97.66 362.49 93.03 360.74 91.37 L 359.74 90.37 L 368.97 82.62 L 369.75 83.88 C 372.75 88.75 375.82 94.96 373.45 96.95 C 372.86 97.44 372.11 97.69 371.34 97.66 Z M 363.57 90.48 C 367.04 93.48 370.75 95.63 371.71 95.03 C 372.00 94.03 370.48 90.32 368.29 86.52 L 363.57 90.48 Z" fill="#e3e800" fill-rule="nonzero" node-id="218" stroke="none" target-height="15.0718" target-width="16.080017" target-x="359.74" target-y="82.6196"></path><path d="M 381.29 107.03 L 371.67 96.64 L 373.11 95.43 L 381.29 107.03 Z" fill="#000000" fill-rule="nonzero" node-id="220" stroke="none" target-height="11.600296" target-width="9.619995" target-x="371.67" target-y="95.4297"></path><path d="M 380.35 107.91 L 369.81 96.53 L 373.36 93.55 L 382.34 106.30 L 380.35 107.91 Z" fill="#e3e800" fill-rule="nonzero" node-id="222" stroke="none" target-height="14.360306" target-width="12.529999" target-x="369.81" target-y="93.5497"></path><path d="M 367.51 104.11 C 367.97 101.53 357.14 97.93 357.14 97.93 L 355.56 106.93 C 355.56 106.93 366.90 107.66 367.51 104.11 Z" fill="#000000" fill-rule="nonzero" node-id="224" stroke="none" target-height="9.730301" target-width="12.410004" target-x="355.56" target-y="97.9297"></path><path d="M 358.11 108.32 C 357.03 108.32 356.11 108.32 355.48 108.24 L 354.04 108.16 L 356.14 96.28 L 357.55 96.75 C 362.97 98.55 369.31 101.34 368.78 104.38 C 368.18 107.76 362.11 108.32 358.11 108.32 Z M 357.11 105.74 C 361.71 105.82 365.92 105.07 366.27 104.00 C 365.88 103.07 362.27 101.18 358.18 99.68 L 357.11 105.74 Z" fill="#e3e800" fill-rule="nonzero" node-id="226" stroke="none" target-height="12.040298" target-width="15.269989" target-x="354.04" target-y="96.2797"></path><path d="M 381.29 107.03 L 367.24 105.26 L 367.57 103.40 L 381.29 107.03 Z" fill="#000000" fill-rule="nonzero" node-id="228" stroke="none" target-height="3.6299973" target-width="14.050018" target-x="367.24" target-y="103.4"></path><path d="M 381.13 108.31 L 365.74 106.36 L 366.55 101.81 L 381.62 105.79 L 381.13 108.31 Z" fill="#e3e800" fill-rule="nonzero" node-id="230" stroke="none" target-height="6.5" target-width="15.880005" target-x="365.74" target-y="101.81"></path><path d="M 368.89 113.68 C 367.57 111.41 356.96 115.61 356.96 115.61 L 361.53 123.52 C 361.53 123.52 370.67 116.77 368.89 113.68 Z" fill="#000000" fill-rule="nonzero" node-id="232" stroke="none" target-height="12.109993" target-width="13.710022" target-x="356.96" target-y="111.41"></path><path d="M 361.18 125.41 L 355.18 114.97 L 356.56 114.42 C 361.87 112.32 368.56 110.37 370.07 113.04 C 372.25 116.82 364.72 122.81 362.36 124.55 L 361.18 125.41 Z M 358.87 116.28 L 361.95 121.61 C 365.54 118.72 368.26 115.44 367.85 114.39 C 366.90 113.93 362.95 114.78 358.83 116.28 L 358.87 116.28 Z" fill="#e3e800" fill-rule="nonzero" node-id="234" stroke="none" target-height="15.040001" target-width="17.070007" target-x="355.18" target-y="110.37"></path><path d="M 381.29 107.03 L 369.39 114.71 L 368.44 113.07 L 381.29 107.03 Z" fill="#000000" fill-rule="nonzero" node-id="236" stroke="none" target-height="7.6800003" target-width="12.850006" target-x="368.44" target-y="107.03"></path><path d="M 368.95 116.51 L 366.64 112.51 L 380.75 105.87 L 381.99 108.11 L 368.95 116.51 Z" fill="#e3e800" fill-rule="nonzero" node-id="238" stroke="none" target-height="10.639999" target-width="15.349976" target-x="366.64" target-y="105.87"></path><path d="M 376.06 120.11 C 373.60 119.21 368.17 129.25 368.17 129.25 L 376.75 132.38 C 376.75 132.38 379.41 121.32 376.06 120.11 Z" fill="#000000" fill-rule="nonzero" node-id="240" stroke="none" target-height="13.170006" target-width="11.23999" target-x="368.17" target-y="119.21"></path><path d="M 377.67 134.11 L 366.34 129.99 L 367.04 128.68 C 369.76 123.68 373.59 117.90 376.50 118.95 C 380.60 120.44 378.69 129.86 378.00 132.72 L 377.67 134.11 Z M 370.03 128.60 L 375.81 130.71 C 376.71 126.19 376.68 121.93 375.69 121.39 C 374.71 121.56 372.18 124.76 370.03 128.55 L 370.03 128.60 Z" fill="#e3e800" fill-rule="nonzero" node-id="242" stroke="none" target-height="16.21" target-width="14.26001" target-x="366.34" target-y="117.9"></path><path d="M 381.29 107.03 L 377.11 120.56 L 375.33 119.92 L 381.29 107.03 Z" fill="#000000" fill-rule="nonzero" node-id="244" stroke="none" target-height="13.529999" target-width="5.960022" target-x="375.33" target-y="107.03"></path><path d="M 377.93 122.23 L 373.58 120.65 L 380.13 106.49 L 382.52 107.41 L 377.93 122.23 Z" fill="#e3e800" fill-rule="nonzero" node-id="246" stroke="none" target-height="15.7400055" target-width="8.940002" target-x="373.58" target-y="106.49"></path><path d="M 385.69 120.41 C 383.22 121.30 385.52 132.48 385.52 132.48 L 394.10 129.36 C 394.10 129.36 389.03 119.19 385.69 120.41 Z" fill="#000000" fill-rule="nonzero" node-id="248" stroke="none" target-height="13.289993" target-width="10.880005" target-x="383.22" target-y="119.19"></path><path d="M 384.56 134.20 L 384.26 132.74 C 383.11 127.15 382.35 120.26 385.26 119.20 C 389.35 117.70 393.95 126.20 395.26 128.78 L 395.90 130.07 L 384.56 134.20 Z M 386.18 121.59 C 385.58 122.40 385.73 126.44 386.48 130.76 L 392.27 128.65 C 390.06 124.61 387.30 121.34 386.18 121.59 Z" fill="#e3e800" fill-rule="nonzero" node-id="250" stroke="none" target-height="16.5" target-width="13.549988" target-x="382.35" target-y="117.7"></path><path d="M 381.29 107.03 L 386.78 120.09 L 385.01 120.73 L 381.29 107.03 Z" fill="#000000" fill-rule="nonzero" node-id="252" stroke="none" target-height="13.700005" target-width="5.48999" target-x="381.29" target-y="107.03"></path><path d="M 384.13 122.42 L 380.05 107.37 L 382.47 106.54 L 388.49 120.83 L 384.13 122.42 Z" fill="#e3e800" fill-rule="nonzero" node-id="254" stroke="none" target-height="15.879997" target-width="8.440002" target-x="380.05" target-y="106.54"></path><path d="M 393.25 114.45 C 391.94 116.73 400.88 123.81 400.88 123.81 L 405.45 115.90 C 405.45 115.90 395.03 111.37 393.25 114.45 Z" fill="#000000" fill-rule="nonzero" node-id="256" stroke="none" target-height="12.439995" target-width="13.51001" target-x="391.94" target-y="111.37"></path><path d="M 401.25 125.74 L 400.09 124.82 C 395.61 121.27 390.60 116.48 392.14 113.82 C 394.33 110.04 403.27 113.57 405.96 114.74 L 407.28 115.31 L 401.25 125.74 Z M 394.40 115.03 C 394.46 116.03 397.17 119.03 400.53 121.87 L 403.61 116.53 C 399.31 114.86 395.11 114.11 394.40 115.03 Z" fill="#e3e800" fill-rule="nonzero" node-id="258" stroke="none" target-height="15.699997" target-width="16.679993" target-x="390.6" target-y="110.04"></path><path d="M 381.29 107.03 L 393.89 113.51 L 392.94 115.14 L 381.29 107.03 Z" fill="#000000" fill-rule="nonzero" node-id="260" stroke="none" target-height="8.110001" target-width="12.600006" target-x="381.29" target-y="107.03"></path><path d="M 393.36 116.99 L 380.56 108.09 L 381.88 105.89 L 395.67 112.98 L 393.36 116.99 Z" fill="#e3e800" fill-rule="nonzero" node-id="262" stroke="none" target-height="11.099998" target-width="15.110016" target-x="380.56" target-y="105.89"></path><path d="M 395.18 105.03 C 395.64 107.61 407.05 107.29 407.05 107.29 L 405.46 98.29 C 405.46 98.29 394.61 101.52 395.18 105.03 Z" fill="#000000" fill-rule="nonzero" node-id="264" stroke="none" target-height="9.320297" target-width="12.440002" target-x="394.61" target-y="98.2897"></path><path d="M 405.18 108.60 C 399.96 108.60 394.45 107.95 393.97 105.25 C 393.21 100.95 402.33 97.90 405.14 97.07 L 406.52 96.66 L 408.62 108.53 L 407.13 108.58 L 405.18 108.60 Z M 396.49 104.73 C 397.18 105.47 401.19 106.03 405.57 106.03 L 404.50 99.97 C 400.18 101.45 396.45 103.61 396.48 104.73 L 396.49 104.73 Z" fill="#e3e800" fill-rule="nonzero" node-id="266" stroke="none" target-height="11.9403" target-width="15.410004" target-x="393.21" target-y="96.6597"></path><path d="M 381.29 107.03 L 395.10 103.90 L 395.43 105.75 L 381.29 107.03 Z" fill="#000000" fill-rule="nonzero" node-id="268" stroke="none" target-height="3.1299973" target-width="14.139984" target-x="381.29" target-y="103.9"></path><path d="M 381.41 108.31 L 381.01 105.78 L 396.13 102.35 L 396.93 106.91 L 381.41 108.31 Z" fill="#e3e800" fill-rule="nonzero" node-id="270" stroke="none" target-height="5.959999" target-width="15.919983" target-x="381.01" target-y="102.35"></path><path d="M 390.67 96.54 C 392.67 98.23 401.22 90.65 401.22 90.65 L 394.22 84.78 C 394.22 84.78 387.95 94.25 390.67 96.54 Z" fill="#000000" fill-rule="nonzero" node-id="272" stroke="none" target-height="13.449898" target-width="13.269989" target-x="387.95" target-y="84.7797"></path><path d="M 391.41 98.04 C 390.85 98.06 390.29 97.88 389.85 97.53 C 386.51 94.72 391.53 86.53 393.15 84.07 L 393.95 82.88 L 403.18 90.63 L 402.07 91.63 C 398.57 94.72 394.18 98.04 391.41 98.04 Z M 391.45 95.51 C 392.50 95.63 395.88 93.51 399.24 90.67 L 394.52 86.67 C 392.18 90.65 390.70 94.66 391.45 95.51 Z" fill="#e3e800" fill-rule="nonzero" node-id="274" stroke="none" target-height="15.182198" target-width="16.669983" target-x="386.51" target-y="82.8796"></path><path d="M 381.29 107.03 L 389.85 95.75 L 391.30 96.97 L 381.29 107.03 Z" fill="#000000" fill-rule="nonzero" node-id="276" stroke="none" target-height="11.280197" target-width="10.009979" target-x="381.29" target-y="95.7498"></path><path d="M 382.20 107.94 L 380.27 106.26 L 389.65 93.90 L 393.19 96.88 L 382.20 107.94 Z" fill="#e3e800" fill-rule="nonzero" node-id="278" stroke="none" target-height="14.040306" target-width="12.920013" target-x="380.27" target-y="93.8997"></path><path d="M 381.29 110.60 C 383.26 110.60 384.86 109.00 384.86 107.03 C 384.86 105.06 383.26 103.46 381.29 103.46 C 379.32 103.46 377.72 105.06 377.72 107.03 C 377.72 109.00 379.32 110.60 381.29 110.60 Z" fill="#cccccc" fill-rule="nonzero" node-id="280" stroke="none" target-height="7.1399994" target-width="7.139984" target-x="377.72" target-y="103.46"></path><path d="M 192.57 60.86 L 184.68 36.35 C 184.52 35.90 184.47 35.42 184.54 34.94 C 184.60 34.47 184.78 34.02 185.05 33.63 C 185.32 33.24 185.69 32.92 186.11 32.70 C 186.53 32.47 187.00 32.35 187.48 32.35 L 193.03 32.19 C 193.74 32.17 194.43 32.35 195.04 32.70 C 195.66 33.06 196.16 33.57 196.50 34.19 L 212.95 63.44 L 192.57 60.86 Z" fill="#050505" fill-rule="nonzero" node-id="282" stroke="none" target-height="31.267101" target-width="28.479004" target-x="184.471" target-y="32.1725"></path><g node-id="364"><g node-id="368"><path d="M 68.56 46.67 L 147.23 8.39 L 252.24 5.70 L 262.16 6.37 L 308.70 48.69 L 68.56 46.67 Z" fill="#4c4c4b" fill-opacity="0.64000005" fill-rule="nonzero" group-id="1,5" node-id="288" stroke="none" target-height="42.98999" target-width="240.13992" target-x="68.5601" target-y="5.69971"></path></g></g><g node-id="365"><g node-id="369"><path d="M 257.30 7.43 C 257.30 7.43 287.09 35.43 289.38 39.28 C 291.67 43.13 308.70 48.69 308.70 48.69 L 306.56 46.75 L 262.18 6.34 L 257.30 7.43 Z" fill="#a8a8a8" fill-opacity="0.64000005" fill-rule="nonzero" group-id="2,6" node-id="296" stroke="none" target-height="42.349983" target-width="51.400024" target-x="257.3" target-y="6.33972"></path></g></g><g node-id="366"><g node-id="370"><path d="M 102.06 48.69 C 102.06 48.69 95.15 41.31 102.98 36.25 C 110.81 31.19 145.84 12.60 145.84 12.60 L 138.56 12.34 L 77.50 42.92 L 102.06 48.69 Z" fill="#4c4c4b" fill-opacity="0.64000005" fill-rule="nonzero" group-id="3,7" node-id="304" stroke="none" target-height="36.350002" target-width="68.34" target-x="77.5" target-y="12.3397"></path></g></g><path d="M 16.29 100.62 L 6.94 100.62 L 11.61 109.87 L 36.09 109.72 L 16.29 100.62 Z" fill="#050505" fill-rule="nonzero" node-id="308" stroke="none" target-height="9.25" target-width="29.15006" target-x="6.93994" target-y="100.62"></path><path d="M 462.10 94.21 L 462.74 79.46 L 455.05 79.46 C 455.05 79.46 429.39 49.95 368.46 46.75 C 322.19 44.31 286.37 44.18 286.37 44.18 C 286.37 44.18 265.67 20.54 254.84 8.54 C 254.39 8.04 263.62 7.43 263.18 6.98 C 260.51 4.19 249.86 2.54 246.61 1.85 C 237.47 -0.07 145.27 3.13 140.14 5.70 C 137.58 6.98 135.01 46.75 135.01 46.75 C 135.01 46.75 30.40 34.93 12.51 34.56 C 8.64 34.48 1.51 34.67 1.51 34.67 L 2.31 38.67 L 23.43 54.47 L 16.43 77.27 L 6.18 77.27 L 6.79 92.95 L 13.18 92.95 L 13.18 103.22 L 63.18 117.33 C 63.18 117.33 66.39 110.27 66.39 106.42 C 66.39 79.49 84.83 64.73 106.79 64.73 C 128.75 64.73 145.59 82.56 146.56 104.50 C 146.98 114.12 154.69 123.24 154.69 123.24 L 343.33 125.48 C 344.09 125.02 344.09 113.02 344.09 105.78 C 344.09 95.91 348.01 86.45 354.99 79.48 C 361.96 72.50 371.42 68.58 381.29 68.58 C 391.16 68.58 400.62 72.50 407.59 79.48 C 414.57 86.45 418.49 95.91 418.49 105.78 C 418.49 113.30 419.77 134.00 420.10 133.85 L 426.19 134.00 L 456.97 134.00 L 459.54 123.74 L 455.69 122.46 L 447.99 103.22 L 451.84 94.22 L 462.10 94.21 Z M 165.80 45.46 L 164.51 10.83 C 164.51 10.83 242.76 8.27 245.32 9.55 C 247.88 10.83 274.83 45.46 274.83 45.46 L 165.80 45.46 Z" fill="#00b240" fill-rule="nonzero" node-id="310" stroke="none" target-height="134.07027" target-width="461.22998" target-x="1.51001" target-y="-0.0702627"></path><path d="M 419.99 135.28 L 419.40 134.90 C 418.74 134.47 418.58 134.37 417.88 122.57 C 417.56 117.05 417.21 109.73 417.21 105.75 C 417.05 96.33 413.20 87.35 406.48 80.74 C 399.76 74.13 390.72 70.43 381.30 70.43 C 371.87 70.43 362.83 74.13 356.11 80.74 C 349.39 87.35 345.54 96.33 345.38 105.75 C 345.38 125.75 344.94 125.98 343.98 126.55 L 343.67 126.74 L 343.31 126.74 L 154.09 124.49 L 153.72 124.04 C 153.39 123.66 145.72 114.48 145.28 104.54 C 144.28 82.93 127.42 66.00 106.79 66.00 C 87.32 66.00 67.67 78.49 67.67 106.40 C 67.67 110.48 64.48 117.54 64.35 117.84 L 63.89 118.84 L 11.89 104.17 L 11.89 94.21 L 5.53 94.21 L 4.82 75.96 L 15.47 75.96 L 21.94 54.96 L 1.18 39.37 L 0.00 33.42 L 1.52 33.42 C 1.81 33.42 8.73 33.24 12.59 33.32 C 29.24 33.66 121.59 43.99 133.87 45.32 C 134.08 42.26 134.64 34.43 135.39 26.58 C 137.39 5.67 138.67 5.03 139.62 4.58 C 144.85 1.97 237.11 -1.42 246.92 0.63 L 248.69 0.97 C 254.93 2.16 261.78 3.64 264.16 6.13 L 264.71 6.70 L 264.46 7.49 C 264.11 8.44 263.46 8.49 259.35 9.03 C 258.73 9.11 257.96 9.20 257.27 9.30 C 267.42 20.59 284.27 39.80 287.01 42.93 C 291.82 42.93 326.01 43.25 368.58 45.50 C 425.27 48.50 452.10 74.50 455.66 78.20 L 464.13 78.20 L 463.38 95.52 L 452.69 95.52 L 449.38 103.23 L 456.66 121.43 L 461.07 122.90 L 457.97 135.28 L 426.18 135.28 L 420.35 135.14 L 419.99 135.28 Z M 421.18 132.57 L 426.18 132.69 L 455.93 132.69 L 457.93 124.55 L 454.64 123.45 L 446.52 103.17 L 450.92 92.92 L 460.79 92.92 L 461.32 80.74 L 454.38 80.74 L 454.00 80.30 C 453.75 80.01 427.92 51.16 368.32 48.03 C 322.61 45.62 286.64 45.47 286.32 45.46 L 285.74 45.46 L 285.36 45.03 C 285.15 44.79 264.54 21.26 253.84 9.40 L 253.32 8.82 L 253.58 8.04 C 253.94 7.04 254.70 6.97 258.94 6.45 L 259.61 6.37 C 255.86 5.09 252.02 4.12 248.11 3.46 L 246.29 3.11 C 237.29 1.23 147.23 4.40 140.83 6.78 C 139.42 9.22 137.40 28.88 136.24 46.83 L 136.16 48.17 L 134.82 48.02 C 133.77 47.90 30.06 36.21 12.44 35.84 C 9.72 35.79 5.32 35.84 3.01 35.91 L 3.41 37.91 L 24.86 53.96 L 17.29 78.53 L 7.42 78.53 L 7.93 91.64 L 14.39 91.64 L 14.39 102.22 L 62.39 115.76 C 63.39 113.35 65.04 108.90 65.04 106.39 C 65.04 76.71 85.98 63.39 106.73 63.39 C 128.73 63.39 146.73 81.39 147.78 104.39 C 148.12 112.29 153.78 120.00 155.26 121.91 L 342.33 124.14 C 342.75 121.14 342.75 110.52 342.75 105.73 C 342.75 95.52 346.81 85.73 354.03 78.51 C 361.25 71.29 371.04 67.23 381.25 67.23 C 391.46 67.23 401.25 71.29 408.47 78.51 C 415.69 85.73 419.75 95.52 419.75 105.73 C 419.77 112.31 420.73 128.50 421.18 132.57 Z M 277.45 46.79 L 164.56 46.79 L 163.18 9.59 L 164.46 9.59 C 188.09 8.81 243.31 7.15 245.89 8.44 C 248.47 9.73 269.47 36.54 275.83 44.72 L 277.45 46.79 Z M 167.03 44.22 L 272.18 44.22 C 262.04 31.22 246.95 12.34 244.76 10.76 C 241.18 9.98 196.23 11.12 165.82 12.11 L 167.03 44.22 Z" fill="#050505" fill-rule="nonzero" node-id="312" stroke="none" target-height="136.70033" target-width="464.13" target-x="0" target-y="-1.42033"></path><path d="M 21.03 62.67 L 36.09 62.58 L 34.16 76.89 L 16.83 76.91 L 21.03 62.67 Z" fill="#ff4200" fill-rule="nonzero" node-id="314" stroke="none" target-height="14.329998" target-width="19.26" target-x="16.83" target-y="62.5797"></path><path d="M 15.97 77.55 L 20.55 62.03 L 36.82 61.94 L 34.72 77.54 L 15.97 77.55 Z M 21.51 63.31 L 17.69 76.31 L 33.60 76.31 L 35.35 63.31 L 21.51 63.31 Z" fill="#070707" fill-rule="nonzero" node-id="316" stroke="none" target-height="15.609997" target-width="20.849998" target-x="15.97" target-y="61.9397"></path><path d="M 163.23 123.11 L 161.95 123.11 C 161.95 118.43 161.43 101.93 154.79 86.32 C 146.02 65.73 130.51 55.02 108.70 54.48 L 106.70 54.48 C 59.59 54.48 56.87 95.32 55.56 115.09 L 55.56 115.47 L 54.28 115.39 L 54.28 115.00 C 55.52 96.41 58.39 53.20 106.75 53.20 C 107.42 53.20 108.09 53.20 108.75 53.20 C 131.11 53.75 147.00 64.72 155.99 85.82 C 162.71 101.62 163.23 118.32 163.23 123.11 Z" fill="#050505" fill-rule="nonzero" node-id="318" stroke="none" target-height="69.9103" target-width="108.95" target-x="54.28" target-y="53.1997"></path><path d="M 457.30 123.74 L 456.30 123.74 C 451.08 123.58 445.89 122.89 440.81 121.67 C 434.04 119.80 428.93 104.67 428.72 104.06 C 428.62 103.72 419.01 72.33 386.72 69.64 L 386.83 68.36 C 420.06 71.13 429.89 103.36 429.99 103.68 C 429.99 103.80 435.09 118.74 441.20 120.44 C 445.85 121.56 450.61 122.23 455.39 122.44 L 454.62 120.54 C 447.55 103.17 430.98 62.49 385.87 60.34 C 338.79 58.17 336.09 98.52 334.95 115.78 L 334.87 116.90 L 162.58 114.73 L 162.58 113.45 L 333.58 115.55 C 334.76 97.86 337.58 56.68 385.84 59.01 C 431.77 61.19 448.55 102.41 455.72 120.01 L 456.87 122.82 L 457.30 123.74 Z" fill="#050505" fill-rule="nonzero" node-id="320" stroke="none" target-height="67.0603" target-width="294.71997" target-x="162.58" target-y="56.6797"></path><path d="M 31.11 93.57 L 6.15 93.57 L 4.76 76.52 L 63.18 76.52 L 63.18 77.80 L 6.15 77.80 L 7.33 92.28 L 31.11 92.28 L 31.11 93.57 Z" fill="#050505" fill-rule="nonzero" node-id="322" stroke="none" target-height="17.049904" target-width="58.41999" target-x="4.76001" target-y="76.5197"></path><path d="M 429.26 77.92 L 429.25 79.20 L 461.91 79.52 L 461.92 78.24 L 429.26 77.92 Z" fill="#050505" fill-rule="nonzero" node-id="324" stroke="none" target-height="1.6065979" target-width="32.673004" target-x="429.246" target-y="77.918"></path><path d="M 451.84 93.62 L 442.01 93.62 L 442.01 94.90 L 451.84 94.90 L 451.84 93.62 Z" fill="#050505" fill-rule="nonzero" node-id="326" stroke="none" target-height="1.2799988" target-width="9.829987" target-x="442.01" target-y="93.6196"></path><path d="M 169.65 114.17 C 169.39 112.02 163.23 61.46 163.23 55.08 C 163.13 51.37 164.06 47.70 165.90 44.47 L 166.97 45.18 C 165.28 48.20 164.43 51.62 164.51 55.08 C 164.51 61.39 170.86 113.49 170.92 114.01 L 169.65 114.17 Z" fill="#050505" fill-rule="nonzero" node-id="328" stroke="none" target-height="69.7003" target-width="7.7879944" target-x="163.132" target-y="44.4697"></path><path d="M 134.98 46.12 L 23.38 53.77 L 23.47 55.05 L 135.06 47.40 L 134.98 46.12 Z" fill="#070707" fill-rule="nonzero" node-id="330" stroke="none" target-height="8.924198" target-width="111.686195" target-x="23.3778" target-y="46.1221"></path><path d="M 318.44 49.31 L 341.53 49.31 L 306.89 108.32 L 169.43 108.32 L 168.36 94.21 L 292.79 94.21 L 318.44 49.31 Z" fill="#020202" fill-rule="nonzero" node-id="332" stroke="none" target-height="59.0103" target-width="173.17" target-x="168.36" target-y="49.3097"></path><path d="M 205.56 49.31 L 322.29 49.31 L 292.79 94.21 L 168.88 94.21 L 168.16 88.75 L 285.09 89.08 L 308.23 53.16 L 208.13 50.59 L 205.56 49.31 Z" fill="#f3ff00" fill-rule="nonzero" node-id="334" stroke="none" target-height="44.9" target-width="154.13" target-x="168.16" target-y="49.3097"></path><path d="M 176.71 53.16 L 195.26 53.16 C 195.26 53.16 196.97 55.73 185.98 55.73 C 175.18 55.73 176.71 53.16 176.71 53.16 Z" fill="#050505" fill-opacity="0.25" fill-rule="nonzero" group-id="4,8" node-id="340" stroke="none" target-height="2.5699997" target-width="21.790009" target-x="175.18" target-y="53.1597"></path><path d="M 303.18 116.30 L 301.91 116.10 C 301.96 115.77 307.02 82.82 307.02 77.80 C 307.02 72.78 295.52 45.35 295.40 45.11 L 296.58 44.61 C 297.06 45.76 308.28 72.61 308.28 77.84 C 308.28 83.07 303.36 114.94 303.18 116.30 Z" fill="#020202" fill-rule="nonzero" node-id="344" stroke="none" target-height="71.6904" target-width="12.880005" target-x="295.4" target-y="44.6096"></path><path d="M 246.70 104.56 L 246.64 105.29 L 243.49 105.29 L 243.49 100.38 C 243.49 98.97 243.16 98.65 241.76 98.66 C 241.61 98.66 241.45 98.66 241.21 98.71 L 241.21 105.26 L 238.18 105.26 L 238.18 98.74 L 235.94 98.74 L 235.94 105.28 L 232.68 105.28 L 232.68 95.79 L 242.77 95.79 C 245.57 95.79 246.63 96.79 246.68 99.59 L 246.68 100.11 C 248.77 98.60 251.14 99.60 253.37 99.18 C 253.28 98.42 252.69 98.38 252.15 98.37 C 250.80 98.37 249.45 98.37 248.10 98.37 L 247.18 98.37 L 247.18 95.77 L 252.28 95.77 C 252.76 95.77 253.23 95.77 253.71 95.77 C 254.06 95.75 254.42 95.81 254.75 95.94 C 255.07 96.07 255.37 96.27 255.62 96.52 C 255.87 96.78 256.06 97.08 256.18 97.41 C 256.30 97.74 256.35 98.10 256.33 98.45 C 256.33 99.74 256.33 101.04 256.33 102.51 L 259.66 99.89 C 261.26 98.63 262.84 97.35 264.46 96.12 C 264.77 95.89 265.15 95.77 265.54 95.77 C 267.95 95.77 270.36 95.77 272.77 95.77 C 275.18 95.77 276.51 97.00 276.62 99.50 C 276.62 99.70 276.62 99.91 276.62 100.24 C 277.03 99.86 277.51 99.57 278.05 99.39 C 278.58 99.22 279.14 99.17 279.70 99.24 L 283.38 99.24 C 283.23 98.30 282.56 98.35 282.03 98.34 C 280.84 98.34 279.65 98.34 278.45 98.34 L 277.23 98.34 L 277.23 95.74 L 279.29 95.74 C 280.75 95.74 282.21 95.74 283.66 95.74 C 284.03 95.71 284.39 95.77 284.74 95.90 C 285.08 96.03 285.39 96.23 285.65 96.50 C 285.91 96.76 286.10 97.08 286.22 97.43 C 286.34 97.77 286.39 98.14 286.35 98.51 C 286.35 100.51 286.35 102.51 286.35 104.51 C 286.35 104.74 286.35 104.98 286.35 105.30 L 283.24 105.30 C 282.12 105.30 281.01 105.30 279.90 105.30 C 278.25 105.30 276.84 104.97 276.20 103.02 C 275.47 104.91 274.07 105.28 272.38 105.22 C 270.38 105.15 268.38 105.22 266.38 105.22 L 266.38 98.36 L 262.06 101.81 C 260.76 102.81 259.47 103.91 258.15 104.93 C 257.86 105.16 257.51 105.28 257.15 105.30 C 254.50 105.30 251.85 105.38 249.21 105.30 C 248.35 105.16 247.50 104.91 246.70 104.56 Z M 269.48 102.44 C 270.54 102.44 271.54 102.49 272.54 102.44 C 272.72 102.41 272.88 102.34 273.02 102.24 C 273.17 102.13 273.28 101.99 273.36 101.83 C 273.56 101.11 273.61 100.35 273.50 99.61 C 273.40 99.36 273.24 99.15 273.04 98.97 C 272.84 98.80 272.61 98.68 272.35 98.61 C 271.39 98.53 270.44 98.53 269.48 98.61 L 269.48 102.44 Z M 283.36 101.44 C 282.21 101.44 281.08 101.44 279.95 101.44 C 279.76 101.44 279.41 101.85 279.45 101.98 C 279.49 102.11 279.81 102.55 280.02 102.56 C 281.12 102.62 282.22 102.56 283.36 102.56 L 283.36 101.44 Z M 253.36 101.44 C 252.20 101.44 251.12 101.44 250.04 101.44 C 249.83 101.44 249.52 101.78 249.46 102.02 C 249.40 102.26 249.78 102.56 249.98 102.57 C 251.10 102.62 252.22 102.57 253.36 102.57 L 253.36 101.44 Z" fill="#fcfcfc" fill-rule="nonzero" node-id="346" stroke="none" target-height="9.667" target-width="53.707" target-x="232.68" target-y="95.713"></path><path d="M 258.66 105.28 L 261.82 102.68 C 261.94 102.58 262.08 102.51 262.24 102.49 C 263.42 102.49 264.60 102.49 265.83 102.49 L 265.83 105.29 L 258.66 105.28 Z" fill="#fcfcfc" fill-rule="nonzero" node-id="348" stroke="none" target-height="2.800003" target-width="7.169983" target-x="258.66" target-y="102.49"></path><path d="M 256.83 95.84 L 263.98 95.84 C 262.80 96.84 261.75 97.70 260.66 98.56 C 260.45 98.66 260.21 98.69 259.98 98.66 L 256.83 98.66 L 256.83 95.84 Z" fill="#fcfcfc" fill-rule="nonzero" node-id="350" stroke="none" target-height="2.852005" target-width="7.1500244" target-x="256.83" target-y="95.8397"></path><path d="M 250.85 59.31 C 250.86 58.77 251.02 58.25 251.33 57.81 C 251.64 57.36 252.07 57.02 252.57 56.83 C 253.36 56.50 254.20 56.31 255.06 56.29 C 263.21 56.25 271.36 56.25 279.53 56.29 C 280.21 56.29 280.88 56.40 281.53 56.60 C 281.93 56.71 282.31 56.89 282.64 57.15 C 282.97 57.40 283.24 57.72 283.44 58.09 C 283.65 58.45 283.77 58.85 283.81 59.27 C 283.86 59.68 283.81 60.10 283.69 60.50 C 283.50 61.18 283.22 61.84 282.87 62.45 C 278.80 69.54 274.71 76.62 270.61 83.69 C 270.17 84.47 269.60 85.17 268.92 85.77 C 268.37 86.27 267.64 86.53 266.90 86.51 C 266.16 86.49 265.45 86.19 264.92 85.67 C 264.40 85.19 263.94 84.64 263.58 84.03 C 262.51 82.27 261.52 80.47 260.47 78.69 C 260.38 78.55 260.32 78.39 260.32 78.23 C 260.32 78.06 260.38 77.90 260.47 77.77 C 263.04 73.35 265.59 68.92 268.13 64.49 C 268.49 63.87 268.75 63.20 268.87 62.49 C 268.99 61.87 268.87 61.22 268.52 60.69 C 268.17 60.16 267.63 59.79 267.01 59.65 C 266.39 59.47 265.75 59.38 265.11 59.39 C 260.67 59.39 256.23 59.39 251.78 59.39 L 250.85 59.31 Z" fill="#ff1d25" fill-rule="nonzero" node-id="352" stroke="none" target-height="30.281399" target-width="33.00699" target-x="250.85" target-y="56.2496"></path><path d="M 205.77 76.36 C 203.45 76.36 201.13 76.42 198.82 76.36 C 197.79 76.30 196.78 76.09 195.82 75.74 C 194.25 75.18 193.61 73.92 194.35 72.45 C 195.39 70.29 196.62 68.23 198.03 66.29 C 199.41 64.43 201.62 63.80 203.86 63.50 C 205.01 63.35 206.17 63.27 207.33 63.26 C 210.72 63.26 214.11 63.21 217.50 63.26 C 218.74 63.30 219.98 63.42 221.21 63.64 C 221.78 63.75 222.32 63.96 222.81 64.27 C 223.24 64.48 223.57 64.84 223.75 65.28 C 223.94 65.72 223.96 66.22 223.81 66.67 C 223.65 67.29 223.42 67.89 223.11 68.46 C 222.62 69.39 222.02 70.26 221.55 71.20 C 220.84 72.66 219.74 73.89 218.38 74.77 C 217.02 75.65 215.45 76.14 213.83 76.20 C 211.14 76.43 208.44 76.44 205.74 76.55 L 205.77 76.36 Z M 207.43 72.10 C 208.51 72.10 209.59 72.02 210.65 72.10 C 211.71 72.28 212.79 72.09 213.72 71.56 C 214.66 71.02 215.37 70.18 215.74 69.17 C 216.41 67.71 216.44 67.55 214.79 67.51 C 212.41 67.45 210.02 67.60 207.65 67.44 C 206.47 67.28 205.27 67.52 204.25 68.14 C 203.23 68.75 202.45 69.70 202.05 70.82 C 201.60 71.82 201.61 72.02 202.73 72.05 C 204.30 72.11 205.87 72.11 207.43 72.11 L 207.43 72.10 Z" fill="#000000" fill-rule="nonzero" node-id="354" stroke="none" target-height="13.340099" target-width="30.347" target-x="193.61" target-y="63.2096"></path><path d="M 243.48 71.90 C 244.89 69.47 246.33 67.18 247.57 64.78 C 247.77 64.23 248.16 63.77 248.67 63.48 C 249.18 63.19 249.77 63.09 250.35 63.19 C 251.98 63.33 253.64 63.19 255.35 63.19 C 255.23 63.43 255.16 63.60 255.07 63.75 C 252.74 67.75 250.40 71.75 248.07 75.75 C 247.99 75.93 247.85 76.08 247.68 76.18 C 247.51 76.28 247.32 76.33 247.12 76.32 C 244.27 76.32 241.41 76.32 238.56 76.32 C 238.38 76.34 238.20 76.30 238.04 76.22 C 237.89 76.14 237.76 76.01 237.67 75.85 C 236.01 73.35 234.32 70.85 232.67 68.37 L 232.18 67.66 C 232.01 67.92 231.87 68.13 231.75 68.34 C 230.31 70.83 228.86 73.34 227.43 75.81 C 227.37 75.97 227.26 76.10 227.12 76.19 C 226.98 76.29 226.82 76.33 226.65 76.33 C 224.65 76.33 222.70 76.33 220.72 76.33 C 220.60 76.33 220.48 76.33 220.26 76.33 C 220.82 75.33 221.35 74.43 221.89 73.51 L 227.57 63.71 C 227.64 63.55 227.76 63.41 227.91 63.32 C 228.07 63.23 228.24 63.19 228.42 63.21 C 231.28 63.21 234.13 63.21 236.99 63.21 C 237.18 63.20 237.37 63.24 237.53 63.32 C 237.70 63.41 237.84 63.55 237.93 63.71 C 239.63 66.26 241.35 68.80 243.06 71.35 L 243.48 71.90 Z" fill="#000000" fill-rule="nonzero" node-id="356" stroke="none" target-height="13.252201" target-width="35.09001" target-x="220.26" target-y="63.0854"></path><path d="M 193.53 76.39 C 191.02 76.39 188.53 76.31 186.00 76.39 C 185.36 76.44 184.71 76.37 184.10 76.16 C 183.49 75.96 182.92 75.64 182.44 75.21 C 181.04 74.01 179.51 72.97 177.97 71.81 C 177.24 73.08 176.47 74.29 175.81 75.56 C 175.69 75.84 175.49 76.07 175.23 76.22 C 174.96 76.37 174.66 76.42 174.36 76.38 C 172.66 76.33 170.97 76.38 169.27 76.38 L 168.51 76.38 C 168.56 76.22 168.62 76.06 168.70 75.91 C 170.49 72.81 172.34 69.74 174.07 66.60 C 174.60 65.52 175.43 64.62 176.47 64.02 C 177.51 63.42 178.70 63.14 179.90 63.22 C 180.90 63.22 181.90 63.22 182.99 63.22 L 180.59 67.33 L 182.33 66.61 L 189.86 63.45 C 190.11 63.33 190.38 63.26 190.66 63.24 C 193.83 63.24 197.01 63.24 200.24 63.37 L 185.24 69.77 L 193.58 76.24 L 193.53 76.39 Z" fill="#000000" fill-rule="nonzero" node-id="358" stroke="none" target-height="13.3024025" target-width="31.730011" target-x="168.51" target-y="63.1414"></path><path d="M 249.99 76.36 L 251.06 74.47 C 253.14 70.89 255.22 67.31 257.29 63.74 C 257.37 63.57 257.49 63.42 257.65 63.33 C 257.82 63.23 258.00 63.19 258.19 63.21 C 260.01 63.21 261.83 63.21 263.75 63.21 C 263.67 63.39 263.59 63.57 263.49 63.75 C 261.81 66.67 260.08 69.56 258.44 72.49 C 257.84 73.67 256.92 74.67 255.78 75.35 C 254.64 76.03 253.33 76.38 252.00 76.35 L 249.99 76.36 Z" fill="#000000" fill-rule="nonzero" node-id="360" stroke="none" target-height="13.186405" target-width="13.7599945" target-x="249.99" target-y="63.1919"></path><path d="M 344.74 77.18 L 151.28 77.55 L 151.28 78.83 L 344.75 78.46 L 344.74 77.18 Z" fill="#050505" fill-rule="nonzero" node-id="362" stroke="none" target-height="1.6513977" target-width="193.463" target-x="151.282" target-y="77.1772"></path></svg>