<?xml version="1.0" standalone="no"?><!DOCTYPE svg PUBLIC "-//W3C//DTD SVG 1.1//EN" "http://www.w3.org/Graphics/SVG/1.1/DTD/svg11.dtd"><svg height="135" node-id="1" sillyvg="true" template-height="135" template-width="510" version="1.1" viewBox="0 0 510 135" width="510" xmlns="http://www.w3.org/2000/svg" xmlns:xlink="http://www.w3.org/1999/xlink"><defs node-id="78"></defs><path d="M 409.48 124.82 L 126.43 124.82 L 68.72 122.07 L 42.61 109.71 L 42.61 49.25 L 409.48 49.25 L 453.44 80.85 L 458.94 123.45 L 409.48 124.82 Z" fill="#3d3d3d" fill-rule="nonzero" node-id="80" stroke="none" target-height="75.570206" target-width="416.33002" target-x="42.61" target-y="49.2488"></path><path d="M 10.32 91.16 L 11.01 119.33 L 37.12 120.70 L 37.12 115.20 L 54.98 119.33 L 53.60 91.16 L 10.32 91.16 Z" fill="#000000" fill-rule="nonzero" node-id="82" stroke="none" target-height="29.5402" target-width="44.66" target-x="10.3201" target-y="91.1588"></path><path d="M 140.89 98.71 L 136.73 126.88 L 371.00 126.88 L 368.23 103.22 L 140.89 98.71 Z" fill="#000000" fill-rule="nonzero" node-id="84" stroke="none" target-height="28.170097" target-width="234.27" target-x="136.73" target-y="98.7089"></path><path d="M 445.89 108.33 L 446.00 127.06 L 504.28 127.57 L 500.85 110.37 L 445.89 108.33 Z" fill="#000000" fill-rule="nonzero" node-id="86" stroke="none" target-height="19.239998" target-width="58.389984" target-x="445.89" target-y="108.329"></path><path d="M 97.57 134.44 C 118.82 134.44 136.04 117.22 136.04 95.97 C 136.04 74.72 118.82 57.50 97.57 57.50 C 76.32 57.50 59.10 74.72 59.10 95.97 C 59.10 117.22 76.32 134.44 97.57 134.44 Z" fill="#000000" fill-rule="nonzero" node-id="88" stroke="none" target-height="76.9402" target-width="76.939995" target-x="59.1" target-y="57.4988"></path><path d="M 97.57 127.57 C 115.02 127.57 129.17 113.42 129.17 95.97 C 129.17 78.52 115.02 64.37 97.57 64.37 C 80.12 64.37 65.97 78.52 65.97 95.97 C 65.97 113.42 80.12 127.57 97.57 127.57 Z" fill="#000000" fill-rule="nonzero" node-id="90" stroke="none" target-height="63.200203" target-width="63.199997" target-x="65.97" target-y="64.3688"></path><path d="M 97.57 129.29 C 90.98 129.29 84.54 127.33 79.06 123.67 C 73.58 120.01 69.31 114.81 66.79 108.72 C 64.26 102.63 63.60 95.93 64.89 89.47 C 66.18 83.00 69.35 77.07 74.01 72.41 C 78.67 67.75 84.61 64.57 91.07 63.29 C 97.53 62.00 104.23 62.66 110.32 65.19 C 116.41 67.71 121.61 71.98 125.28 77.46 C 128.94 82.94 130.89 89.38 130.89 95.97 C 130.88 104.80 127.37 113.27 121.12 119.52 C 114.87 125.76 106.40 129.28 97.57 129.29 Z M 97.57 66.08 C 91.66 66.08 85.88 67.83 80.96 71.12 C 76.05 74.40 72.22 79.07 69.96 84.53 C 67.69 89.99 67.10 96.00 68.25 101.80 C 69.41 107.60 72.25 112.92 76.43 117.10 C 80.61 121.28 85.94 124.13 91.74 125.28 C 97.54 126.44 103.55 125.85 109.01 123.58 C 114.47 121.32 119.14 117.49 122.42 112.58 C 125.71 107.66 127.46 101.88 127.46 95.97 C 127.45 88.04 124.30 80.45 118.70 74.84 C 113.09 69.24 105.50 66.09 97.57 66.08 Z" fill="#d38700" fill-rule="nonzero" node-id="92" stroke="none" target-height="67.2856" target-width="67.2854" target-x="63.6046" target-y="62.0034"></path><path d="M 103.07 94.59 L 92.08 94.59 L 93.45 65.74 L 101.69 65.74 L 103.07 94.59 Z" fill="#000000" fill-rule="nonzero" node-id="94" stroke="none" target-height="28.849998" target-width="10.989998" target-x="92.08" target-y="65.7388"></path><path d="M 104.51 95.97 L 90.64 95.97 L 92.14 64.36 L 103.00 64.36 L 104.51 95.97 Z M 93.51 93.22 L 101.62 93.22 L 100.38 67.11 L 94.75 67.11 L 93.51 93.22 Z" fill="#d38700" fill-rule="nonzero" node-id="96" stroke="none" target-height="31.61" target-width="13.870003" target-x="90.64" target-y="64.3588"></path><path d="M 96.41 91.44 L 93.01 101.90 L 66.00 91.67 L 68.54 83.83 L 96.41 91.44 Z" fill="#000000" fill-rule="nonzero" node-id="98" stroke="none" target-height="18.070099" target-width="30.410004" target-x="66" target-y="83.8289"></path><path d="M 93.88 103.69 L 64.29 92.50 L 67.64 82.16 L 98.16 90.50 L 93.88 103.69 Z M 67.71 90.85 L 92.15 100.10 L 94.66 92.39 L 69.45 85.50 L 67.71 90.85 Z" fill="#d38700" fill-rule="nonzero" node-id="100" stroke="none" target-height="21.530205" target-width="33.870003" target-x="64.29" target-y="82.1588"></path><path d="M 93.16 94.12 L 102.05 100.58 L 83.98 123.12 L 77.31 118.27 L 93.16 94.12 Z" fill="#000000" fill-rule="nonzero" node-id="102" stroke="none" target-height="29.000206" target-width="24.740105" target-x="77.3099" target-y="94.1188"></path><path d="M 84.23 125.00 L 75.44 118.61 L 92.80 92.16 L 104.02 100.32 L 84.23 125.00 Z M 79.23 117.93 L 83.78 121.24 L 100.10 100.85 L 93.54 96.08 L 79.23 117.93 Z" fill="#d38700" fill-rule="nonzero" node-id="104" stroke="none" target-height="32.840202" target-width="28.580093" target-x="75.4399" target-y="92.1588"></path><path d="M 94.21 99.77 L 103.10 93.31 L 118.95 117.46 L 112.28 122.31 L 94.21 99.77 Z" fill="#000000" fill-rule="nonzero" node-id="106" stroke="none" target-height="29.000198" target-width="24.739998" target-x="94.21" target-y="93.3088"></path><path d="M 112.03 124.19 L 92.23 99.51 L 103.46 91.35 L 120.82 117.81 L 112.03 124.19 Z M 96.18 100.04 L 112.53 120.45 L 117.08 117.14 L 102.74 95.29 L 96.18 100.04 Z" fill="#d38700" fill-rule="nonzero" node-id="108" stroke="none" target-height="32.840202" target-width="28.589996" target-x="92.23" target-y="91.3488"></path><path d="M 101.71 100.59 L 98.31 90.14 L 126.18 82.53 L 128.72 90.37 L 101.71 100.59 Z" fill="#000000" fill-rule="nonzero" node-id="110" stroke="none" target-height="18.060196" target-width="30.410103" target-x="98.3099" target-y="82.5288"></path><path d="M 100.84 102.39 L 96.56 89.19 L 127.10 80.86 L 130.45 91.19 L 100.84 102.39 Z M 100.10 91.08 L 102.61 98.80 L 127.05 89.55 L 125.31 84.20 L 100.10 91.08 Z" fill="#d38700" fill-rule="nonzero" node-id="112" stroke="none" target-height="21.530197" target-width="33.8901" target-x="96.5599" target-y="80.8588"></path><path d="M 97.57 104.21 C 101.36 104.21 104.44 101.13 104.44 97.34 C 104.44 93.54 101.36 90.47 97.57 90.47 C 93.78 90.47 90.70 93.54 90.70 97.34 C 90.70 101.13 93.78 104.21 97.57 104.21 Z" fill="#cccccc" fill-rule="nonzero" node-id="114" stroke="none" target-height="13.740196" target-width="13.7400055" target-x="90.7" target-y="90.4688"></path><path d="M 97.57 104.90 C 96.07 104.90 94.61 104.45 93.37 103.62 C 92.13 102.79 91.16 101.61 90.59 100.23 C 90.01 98.85 89.86 97.33 90.16 95.86 C 90.45 94.40 91.17 93.05 92.22 91.99 C 93.28 90.94 94.63 90.22 96.10 89.92 C 97.56 89.63 99.08 89.78 100.46 90.35 C 101.84 90.93 103.03 91.90 103.86 93.14 C 104.69 94.38 105.13 95.84 105.13 97.34 C 105.13 99.34 104.33 101.27 102.92 102.69 C 101.50 104.10 99.58 104.90 97.57 104.90 Z M 97.57 91.16 C 96.35 91.16 95.15 91.52 94.14 92.21 C 93.12 92.89 92.33 93.85 91.87 94.98 C 91.40 96.11 91.28 97.35 91.52 98.55 C 91.76 99.75 92.35 100.85 93.21 101.71 C 94.08 102.58 95.18 103.16 96.38 103.40 C 97.58 103.64 98.82 103.52 99.95 103.05 C 101.08 102.58 102.04 101.79 102.72 100.77 C 103.40 99.76 103.76 98.56 103.76 97.34 C 103.76 96.53 103.60 95.72 103.29 94.97 C 102.98 94.22 102.52 93.54 101.95 92.97 C 101.37 92.39 100.69 91.94 99.94 91.63 C 99.19 91.32 98.38 91.16 97.57 91.16 Z" fill="#4c4c4c" fill-rule="nonzero" node-id="116" stroke="none" target-height="15.266602" target-width="15.266396" target-x="89.8636" target-y="89.6324"></path><path d="M 406.73 134.43 C 426.46 134.43 442.45 118.44 442.45 98.71 C 442.45 78.98 426.46 62.99 406.73 62.99 C 387.00 62.99 371.01 78.98 371.01 98.71 C 371.01 118.44 387.00 134.43 406.73 134.43 Z" fill="#000000" fill-rule="nonzero" node-id="118" stroke="none" target-height="71.4402" target-width="71.44" target-x="371.01" target-y="62.9888"></path><path d="M 406.73 128.06 C 422.94 128.06 436.08 114.92 436.08 98.71 C 436.08 82.50 422.94 69.36 406.73 69.36 C 390.52 69.36 377.38 82.50 377.38 98.71 C 377.38 114.92 390.52 128.06 406.73 128.06 Z" fill="#000000" fill-rule="nonzero" node-id="120" stroke="none" target-height="58.700203" target-width="58.69998" target-x="377.38" target-y="69.3588"></path><path d="M 406.73 129.78 C 400.58 129.78 394.58 127.96 389.46 124.55 C 384.35 121.13 380.37 116.28 378.02 110.60 C 375.66 104.93 375.05 98.68 376.25 92.65 C 377.44 86.62 380.40 81.08 384.75 76.74 C 389.10 72.39 394.63 69.43 400.66 68.24 C 406.69 67.04 412.94 67.65 418.62 70.01 C 424.29 72.36 429.14 76.34 432.56 81.45 C 435.97 86.56 437.79 92.57 437.79 98.72 C 437.78 106.95 434.50 114.84 428.68 120.67 C 422.86 126.49 414.96 129.77 406.73 129.78 Z M 406.73 71.09 C 401.26 71.09 395.92 72.71 391.38 75.74 C 386.83 78.78 383.29 83.09 381.20 88.14 C 379.10 93.19 378.56 98.74 379.62 104.10 C 380.69 109.46 383.31 114.39 387.18 118.25 C 391.04 122.12 395.97 124.75 401.33 125.82 C 406.69 126.88 412.24 126.34 417.29 124.25 C 422.34 122.16 426.66 118.61 429.69 114.07 C 432.73 109.53 434.35 104.18 434.35 98.72 C 434.34 91.39 431.43 84.37 426.25 79.19 C 421.07 74.01 414.05 71.10 406.73 71.09 Z" fill="#d38700" fill-rule="nonzero" node-id="122" stroke="none" target-height="62.74421" target-width="62.743988" target-x="375.048" target-y="67.0368"></path><path d="M 411.83 97.44 L 401.62 97.44 L 402.90 70.65 L 410.55 70.65 L 411.83 97.44 Z" fill="#000000" fill-rule="nonzero" node-id="124" stroke="none" target-height="26.789993" target-width="10.209991" target-x="401.62" target-y="70.6488"></path><path d="M 413.27 98.81 L 400.18 98.81 L 401.59 69.27 L 411.86 69.27 L 413.27 98.81 Z M 403.10 96.06 L 410.43 96.06 L 409.28 72.06 L 404.28 72.06 L 403.10 96.06 Z" fill="#d38700" fill-rule="nonzero" node-id="126" stroke="none" target-height="29.54" target-width="13.089996" target-x="400.18" target-y="69.2688"></path><path d="M 405.65 94.51 L 402.49 104.22 L 377.41 94.73 L 379.77 87.45 L 405.65 94.51 Z" fill="#000000" fill-rule="nonzero" node-id="128" stroke="none" target-height="16.770302" target-width="28.23999" target-x="377.41" target-y="87.4487"></path><path d="M 403.36 106.02 L 375.69 95.55 L 378.87 85.78 L 407.40 93.57 L 403.36 106.02 Z M 379.10 93.91 L 401.63 102.45 L 403.90 95.45 L 380.67 89.11 L 379.10 93.91 Z" fill="#d38700" fill-rule="nonzero" node-id="130" stroke="none" target-height="20.240196" target-width="31.709991" target-x="375.69" target-y="85.7788"></path><path d="M 402.63 97.00 L 410.88 103.00 L 394.10 123.93 L 387.91 119.43 L 402.63 97.00 Z" fill="#000000" fill-rule="nonzero" node-id="132" stroke="none" target-height="26.930199" target-width="22.970001" target-x="387.91" target-y="96.9988"></path><path d="M 394.36 125.81 L 386.04 119.81 L 402.27 95.08 L 412.86 102.78 L 394.36 125.81 Z M 389.78 119.09 L 393.85 122.09 L 408.91 103.30 L 402.98 99.00 L 389.78 119.09 Z" fill="#d38700" fill-rule="nonzero" node-id="134" stroke="none" target-height="30.7303" target-width="26.819977" target-x="386.04" target-y="95.0787"></path><path d="M 403.60 102.25 L 411.86 96.25 L 426.58 118.68 L 420.38 123.18 L 403.60 102.25 Z" fill="#000000" fill-rule="nonzero" node-id="136" stroke="none" target-height="26.930199" target-width="22.97998" target-x="403.6" target-y="96.2488"></path><path d="M 420.10 125.06 L 401.60 101.99 L 412.19 94.29 L 428.41 119.02 L 420.10 125.06 Z M 405.54 102.51 L 420.60 121.30 L 424.68 118.30 L 411.50 98.21 L 405.54 102.51 Z" fill="#d38700" fill-rule="nonzero" node-id="138" stroke="none" target-height="30.770195" target-width="26.809998" target-x="401.6" target-y="94.2888"></path><path d="M 410.57 103.01 L 407.41 93.30 L 433.29 86.24 L 435.65 93.51 L 410.57 103.01 Z" fill="#000000" fill-rule="nonzero" node-id="140" stroke="none" target-height="16.770203" target-width="28.23999" target-x="407.41" target-y="86.2388"></path><path d="M 409.70 104.80 L 405.70 92.35 L 434.23 84.56 L 437.40 94.34 L 409.70 104.80 Z M 409.16 94.25 L 411.43 101.25 L 433.94 92.73 L 432.39 87.95 L 409.16 94.25 Z" fill="#d38700" fill-rule="nonzero" node-id="142" stroke="none" target-height="20.240303" target-width="31.699982" target-x="405.7" target-y="84.5587"></path><path d="M 406.73 106.37 C 410.25 106.37 413.11 103.51 413.11 99.99 C 413.11 96.47 410.25 93.61 406.73 93.61 C 403.21 93.61 400.35 96.47 400.35 99.99 C 400.35 103.51 403.21 106.37 406.73 106.37 Z" fill="#cccccc" fill-rule="nonzero" node-id="144" stroke="none" target-height="12.7602005" target-width="12.759979" target-x="400.35" target-y="93.6088"></path><path d="M 406.73 107.06 C 405.33 107.06 403.96 106.65 402.80 105.87 C 401.63 105.10 400.73 103.99 400.19 102.70 C 399.65 101.41 399.51 99.99 399.79 98.62 C 400.06 97.24 400.73 95.98 401.72 94.99 C 402.71 94.00 403.96 93.33 405.34 93.06 C 406.71 92.78 408.13 92.92 409.42 93.46 C 410.72 93.99 411.82 94.90 412.60 96.06 C 413.38 97.22 413.79 98.59 413.79 99.99 C 413.79 101.86 413.04 103.66 411.72 104.98 C 410.40 106.31 408.60 107.05 406.73 107.06 Z M 406.73 94.30 C 405.61 94.30 404.50 94.63 403.57 95.26 C 402.63 95.88 401.90 96.77 401.47 97.81 C 401.04 98.85 400.93 100.00 401.15 101.10 C 401.37 102.20 401.91 103.22 402.71 104.01 C 403.50 104.81 404.52 105.35 405.62 105.57 C 406.72 105.79 407.87 105.68 408.91 105.25 C 409.95 104.81 410.84 104.09 411.46 103.15 C 412.09 102.21 412.42 101.11 412.42 99.99 C 412.42 98.48 411.82 97.03 410.75 95.97 C 409.68 94.90 408.24 94.30 406.73 94.30 Z" fill="#3f3f3f" fill-rule="nonzero" node-id="146" stroke="none" target-height="14.279297" target-width="14.277008" target-x="399.513" target-y="92.7817"></path><g node-id="258"><g node-id="266"><path d="M 108.56 36.88 C 136.05 13.53 197.88 2.53 197.88 2.53 C 197.88 2.53 274.32 -1.22 299.55 9.40 C 325.66 20.40 377.87 47.88 377.87 47.88 L 162.87 48.56 L 108.56 36.88 Z" fill="#514841" fill-opacity="0.64000005" fill-rule="nonzero" group-id="1,9" node-id="152" stroke="none" target-height="49.77996" target-width="269.31" target-x="108.56" target-y="-1.22106"></path></g></g><path d="M 292.68 8.03 C 300.93 9.40 361.38 46.50 361.38 46.50 L 354.51 46.50 C 354.51 46.50 303.46 16.13 299.51 13.50 C 297.08 11.88 294.79 10.05 292.68 8.03 Z" fill="#8e8176" fill-rule="nonzero" node-id="156" stroke="none" target-height="38.46999" target-width="68.70001" target-x="292.68" target-y="8.02881"></path><path d="M 13.10 85.66 L 0.00 85.66 L 4.67 95.31 C 5.56 96.15 8.14 96.76 11.24 96.87 L 24.73 97.34 L 13.10 85.66 Z" fill="#4c4c4c" fill-rule="nonzero" node-id="158" stroke="none" target-height="11.68" target-width="24.73" target-x="0" target-y="85.6588"></path><path d="M 15.10 14.21 L 16.59 30.70 L 44.59 36.20 L 54.21 34.82 C 52.73 33.13 38.84 16.82 36.61 16.58 L 15.10 14.21 Z" fill="#a33a00" fill-rule="nonzero" node-id="160" stroke="none" target-height="21.99" target-width="39.11" target-x="15.1" target-y="14.2087"></path><path d="M 44.64 37.59 L 15.34 31.85 L 13.61 12.66 L 36.84 15.21 C 37.84 15.32 39.40 15.49 54.59 33.07 L 57.00 35.82 L 44.64 37.59 Z M 17.90 29.59 L 44.71 34.84 L 51.60 33.84 C 40.06 20.53 37.17 18.28 36.45 17.96 L 16.65 15.78 L 17.90 29.59 Z" fill="#050505" fill-rule="nonzero" node-id="162" stroke="none" target-height="24.93" target-width="43.39" target-x="13.61" target-y="12.6587"></path><path d="M 131.92 42.38 C 139.86 52.96 133.15 31.38 145.66 24.52 C 160.58 16.38 186.88 5.28 186.88 5.28 C 186.88 5.28 142.64 19.71 131.88 25.89 C 126.11 29.13 120.60 32.80 115.39 36.89 C 115.39 36.89 133.57 44.58 131.92 42.38 Z" fill="#aa968d" fill-opacity="0.64000005" fill-rule="nonzero" group-id="2,10" node-id="168" stroke="none" target-height="47.679993" target-width="71.490005" target-x="115.39" target-y="5.27881"></path><path d="M 133.30 39.63 C 133.30 39.63 121.90 29.27 151.16 17.63 C 130.16 21.63 116.81 36.86 116.81 36.86 L 133.30 39.63 Z" fill="#3f332d" fill-rule="nonzero" group-id="3,11" node-id="176" stroke="none" target-height="21.999998" target-width="34.350006" target-x="116.81" target-y="17.6289"></path><path d="M 278.94 14.90 C 296.81 30.01 309.17 35.51 309.17 39.63 L 309.17 47.88 L 343.52 43.75 C 343.52 43.75 303.26 20.33 295.43 17.65 C 290.09 15.97 284.54 15.04 278.94 14.90 Z" fill="#8e8176" fill-opacity="0.64000005" fill-rule="nonzero" group-id="4,12" node-id="184" stroke="none" target-height="32.98" target-width="64.57999" target-x="278.94" target-y="14.8989"></path><path d="M 287.87 5.97 C 263.39 -0.56 198.56 1.85 198.56 1.85 L 158.72 56.85 L 217.89 51.35 L 215.95 44.45 L 209.56 21.09 L 199.94 19.72 L 208.18 7.35 C 208.18 7.35 264.52 5.97 285.10 11.45 C 295.10 14.11 320.82 29.32 320.82 29.32 L 320.82 51.32 L 359.29 51.32 C 359.29 51.32 308.48 11.45 287.87 5.97 Z M 202.69 27.97 L 205.43 36.22 L 183.43 36.22 L 190.30 26.60 L 202.69 27.97 Z" fill="#3d3b3a" fill-rule="nonzero" node-id="188" stroke="none" target-height="57.41001" target-width="200.57" target-x="158.72" target-y="-0.561311"></path><path d="M 155.82 58.45 L 197.82 0.45 L 198.49 0.45 C 201.15 0.35 263.81 -1.88 288.21 4.62 C 308.85 10.13 358.07 48.62 360.15 50.21 L 363.28 52.67 L 319.48 52.67 L 319.48 30.11 C 315.35 27.71 293.55 15.11 284.77 12.79 C 265.83 7.79 215.52 8.57 208.93 8.70 L 202.29 18.70 L 210.64 19.89 L 219.64 52.57 L 155.82 58.45 Z M 199.28 3.19 L 161.61 55.19 L 216.10 50.10 L 214.61 44.81 L 208.45 22.32 L 197.57 20.76 L 207.41 5.99 L 208.13 5.99 C 210.44 5.99 264.90 4.67 285.46 10.16 C 295.46 12.83 320.46 27.54 321.53 28.16 L 322.20 28.56 L 322.20 49.96 L 355.27 49.96 C 343.84 41.21 304.66 11.89 287.50 7.32 C 264.84 1.25 206.21 2.97 199.28 3.20 L 199.28 3.19 Z M 207.34 37.56 L 180.78 37.56 L 189.67 25.11 L 203.67 26.68 L 207.34 37.56 Z M 186.10 34.82 L 203.51 34.82 L 201.64 29.22 L 190.95 28.03 L 186.10 34.82 Z" fill="#050505" fill-rule="nonzero" node-id="190" stroke="none" target-height="60.329967" target-width="207.45999" target-x="155.82" target-y="-1.88117"></path><path d="M 507.73 85.06 L 500.81 101.45 C 500.81 101.55 500.75 111.27 500.65 111.27 L 454.50 109.34 L 445.25 109.26 C 445.14 108.75 445.09 108.22 445.09 107.70 C 445.29 105.36 445.42 101.03 445.48 99.70 C 446.60 76.60 428.25 56.70 405.13 57.21 C 394.82 57.45 385.01 61.71 377.80 69.09 C 370.59 76.47 366.55 86.37 366.55 96.69 C 366.51 98.74 366.64 100.78 366.95 102.81 C 366.95 102.83 366.95 102.86 366.94 102.88 C 366.94 102.90 366.93 102.92 366.91 102.94 C 366.90 102.96 366.88 102.97 366.86 102.98 C 366.84 102.99 366.81 103.00 366.79 103.00 L 354.65 102.90 L 355.20 114.49 L 151.85 113.11 L 152.53 100.91 L 140.39 100.83 C 140.35 100.82 140.31 100.80 140.28 100.77 C 140.25 100.74 140.23 100.69 140.23 100.65 C 140.40 99.32 140.48 97.99 140.46 96.65 C 140.29 90.85 138.96 85.14 136.56 79.85 C 134.15 74.57 130.71 69.82 126.44 65.89 C 122.18 61.95 117.17 58.91 111.70 56.94 C 106.25 54.96 100.44 54.10 94.65 54.41 C 88.85 54.71 83.17 56.16 77.94 58.69 C 72.72 61.22 68.05 64.76 64.21 69.12 C 60.38 73.48 57.45 78.55 55.60 84.06 C 53.75 89.56 53.03 95.38 53.46 101.17 C 53.46 101.19 53.46 101.22 53.45 101.24 C 53.44 101.26 53.43 101.28 53.41 101.30 C 53.40 101.31 53.38 101.33 53.36 101.33 C 53.34 101.34 53.31 101.35 53.29 101.35 L 15.14 97.20 C 13.03 97.04 11.05 96.12 9.57 94.61 C 8.09 93.11 7.20 91.11 7.08 89.00 L 6.15 73.27 L 15.70 65.58 L 15.77 65.43 L 15.77 28.13 C 15.77 28.11 15.77 28.08 15.78 28.06 C 15.79 28.04 15.80 28.02 15.82 28.01 C 15.83 27.99 15.85 27.98 15.87 27.97 C 15.90 27.97 15.92 27.97 15.94 27.97 C 15.94 27.97 44.10 30.71 44.10 30.73 C 44.10 30.75 52.94 34.82 53.00 34.82 C 53.06 34.82 114.73 33.45 114.75 33.45 L 162.53 40.31 L 366.19 45.54 C 366.19 45.54 392.32 45.82 403.29 45.82 C 414.11 45.82 504.77 83.74 507.65 84.95 C 507.67 84.96 507.69 84.97 507.71 84.99 C 507.72 85.01 507.73 85.03 507.73 85.06 Z" fill="#e24f05" fill-rule="nonzero" node-id="192" stroke="none" target-height="86.5232" target-width="501.58" target-x="6.15002" target-y="27.9658"></path><path d="M 356.64 115.90 L 150.39 114.51 L 151.08 102.30 L 139.80 102.23 L 139.28 101.75 C 139.14 101.59 139.03 101.41 138.95 101.22 C 138.88 101.02 138.85 100.81 138.86 100.60 C 138.87 100.00 138.93 99.39 139.03 98.80 C 139.10 98.09 139.12 97.39 139.08 96.68 C 139.17 91.08 138.14 85.53 136.06 80.33 C 133.97 75.14 130.88 70.41 126.95 66.42 C 123.03 62.43 118.35 59.27 113.18 57.10 C 108.02 54.94 102.48 53.83 96.89 53.83 C 91.29 53.83 85.75 54.94 80.59 57.10 C 75.42 59.27 70.74 62.43 66.82 66.42 C 62.89 70.41 59.80 75.14 57.71 80.33 C 55.63 85.53 54.60 91.08 54.69 96.68 C 54.66 97.59 54.69 98.49 54.76 99.40 C 54.76 99.75 54.84 100.19 54.88 101.12 C 54.89 101.34 54.86 101.56 54.78 101.77 C 54.70 101.98 54.58 102.16 54.42 102.32 L 53.97 102.75 L 53.22 102.75 L 15.04 98.60 C 12.61 98.40 10.34 97.33 8.63 95.59 C 6.93 93.85 5.91 91.55 5.76 89.12 L 4.76 72.67 L 14.42 64.90 L 14.42 27.53 L 14.90 27.00 C 15.05 26.85 15.24 26.74 15.44 26.67 C 15.64 26.61 15.85 26.58 16.06 26.60 C 40.35 28.97 43.90 29.32 44.62 29.50 C 47.62 30.90 52.13 32.98 53.21 33.50 C 107.21 32.29 113.94 32.15 114.90 32.17 L 162.61 39.02 L 366.18 44.25 C 368.88 44.25 392.80 44.52 403.25 44.52 C 414.36 44.52 504.31 82.16 508.14 83.76 C 508.37 83.85 508.57 84.00 508.73 84.20 C 508.88 84.39 508.99 84.62 509.04 84.86 L 509.13 85.28 L 502.13 101.86 C 502.13 104.05 502.26 111.52 501.67 112.23 L 501.24 112.76 L 500.55 112.76 L 454.40 110.84 L 444.60 110.75 L 444.19 110.30 C 443.56 109.62 443.68 107.72 443.68 107.71 C 443.83 105.98 443.94 103.15 444.01 101.27 C 444.01 100.63 444.01 100.10 444.07 99.77 C 444.33 94.33 443.47 88.90 441.54 83.81 C 439.62 78.72 436.67 74.08 432.88 70.17 C 429.31 66.43 424.99 63.49 420.21 61.51 C 415.43 59.54 410.29 58.59 405.12 58.72 C 395.18 59.00 385.75 63.13 378.80 70.24 C 371.85 77.35 367.94 86.88 367.88 96.82 C 367.85 98.03 367.93 99.25 368.10 100.45 C 368.16 100.91 368.24 101.45 368.34 102.69 C 368.36 102.90 368.33 103.12 368.26 103.32 C 368.19 103.53 368.08 103.71 367.93 103.87 L 367.52 104.31 L 366.81 104.36 L 356.11 104.28 L 356.64 115.90 Z M 153.30 111.78 L 353.76 113.13 L 353.21 101.55 L 365.45 101.64 C 365.45 101.32 365.38 101.08 365.35 100.87 C 365.18 99.49 365.13 98.10 365.18 96.72 C 365.24 86.06 369.43 75.85 376.88 68.22 C 384.33 60.60 394.45 56.17 405.10 55.87 C 410.65 55.74 416.16 56.76 421.29 58.88 C 426.42 60.99 431.05 64.15 434.89 68.15 C 438.95 72.32 442.10 77.29 444.17 82.73 C 446.23 88.17 447.16 93.98 446.89 99.80 L 446.82 101.27 C 446.75 103.18 446.64 106.05 446.49 107.84 L 446.49 107.92 L 454.49 107.99 L 499.32 109.86 C 499.38 107.49 499.43 102.56 499.42 101.63 L 499.35 101.34 L 505.94 85.73 C 473.39 72.11 411.62 47.19 403.27 47.19 C 392.81 47.19 368.88 46.94 366.18 46.91 C 180.95 42.16 164.01 41.73 162.32 41.65 L 114.65 34.80 L 53.00 36.17 C 52.67 36.17 52.68 36.17 43.70 32.05 L 17.19 29.45 L 17.19 65.77 L 16.92 66.33 L 16.61 66.67 L 7.61 73.91 L 8.50 88.91 C 8.61 90.69 9.35 92.37 10.60 93.64 C 11.85 94.91 13.51 95.68 15.29 95.82 L 52.05 99.82 C 52.05 99.75 52.05 99.67 52.05 99.60 C 51.96 98.60 51.93 97.60 51.96 96.60 C 52.14 84.79 56.95 73.53 65.36 65.25 C 73.77 56.96 85.10 52.32 96.91 52.32 C 108.71 52.32 120.04 56.96 128.45 65.25 C 136.86 73.53 141.67 84.79 141.85 96.60 C 141.90 97.47 141.87 98.34 141.75 99.21 C 141.75 99.26 141.75 99.32 141.75 99.41 L 154.03 99.49 L 153.30 111.78 Z" fill="#050505" fill-rule="nonzero" node-id="194" stroke="none" target-height="89.3191" target-width="504.37" target-x="4.76001" target-y="26.5799"></path><path d="M 26.10 50.73 C 65.30 56.36 49.48 68.45 49.48 68.45 C 52.23 62.95 59.10 54.71 65.97 50.58 C 52.69 49.75 39.37 49.80 26.10 50.73 Z" fill="#050505" fill-opacity="0.36" fill-rule="nonzero" group-id="5,13" node-id="200" stroke="none" target-height="18.6974" target-width="39.870003" target-x="26.1" target-y="49.7514"></path><path d="M 470.62 81.54 L 467.87 89.78 L 498.10 89.78 L 495.35 82.91 L 470.62 81.54 Z" fill="#cc3b09" fill-rule="nonzero" node-id="204" stroke="none" target-height="8.239998" target-width="30.230011" target-x="467.87" target-y="81.5388"></path><path d="M 499.10 90.45 L 466.92 90.45 L 470.13 80.80 L 495.83 82.23 L 499.10 90.45 Z M 468.81 89.08 L 497.10 89.08 L 494.90 83.56 L 471.10 82.25 L 468.81 89.08 Z" fill="#050505" fill-rule="nonzero" node-id="206" stroke="none" target-height="9.650002" target-width="32.179993" target-x="466.92" target-y="80.7988"></path><path d="M 458.25 109.02 L 456.88 109.02 C 456.88 85.75 452.17 69.65 442.48 59.80 L 443.48 58.80 C 453.41 68.95 458.25 85.37 458.25 109.02 Z" fill="#070707" fill-rule="nonzero" node-id="208" stroke="none" target-height="50.220196" target-width="15.769989" target-x="442.48" target-y="58.7988"></path><path d="M 355.27 102.91 L 353.90 102.91 C 353.90 85.42 360.32 68.62 371.09 57.96 C 375.32 53.76 380.35 50.46 385.89 48.25 C 391.42 46.03 397.34 44.96 403.30 45.08 L 403.30 46.45 C 397.53 46.31 391.79 47.35 386.42 49.49 C 381.06 51.64 376.19 54.85 372.10 58.93 C 361.54 69.34 355.27 85.78 355.27 102.91 Z" fill="#070707" fill-rule="nonzero" node-id="210" stroke="none" target-height="57.953297" target-width="49.399994" target-x="353.9" target-y="44.9557"></path><path d="M 129.18 52.00 C 142.92 60.24 149.79 79.48 149.79 79.48 C 149.79 79.48 153.91 58.87 158.03 58.87 C 170.70 58.87 320.53 59.18 354.51 58.87 C 358.87 58.87 362.76 54.75 362.76 54.75 C 362.76 54.75 122.31 53.37 129.18 52.00 Z" fill="#000000" fill-opacity="0.36" fill-rule="nonzero" group-id="6,14" node-id="216" stroke="none" target-height="27.48" target-width="240.45001" target-x="122.31" target-y="51.9988"></path><path d="M 236.42 93.91 L 169.95 93.91 C 168.52 93.93 167.10 93.55 165.88 92.81 C 164.65 92.07 163.66 90.99 163.02 89.71 C 161.38 86.25 159.40 80.90 157.31 75.25 C 155.99 71.68 154.62 67.99 153.31 64.65 C 153.10 64.07 153.03 63.45 153.12 62.84 C 153.21 62.23 153.45 61.65 153.82 61.16 C 154.48 60.25 155.34 59.51 156.34 58.99 C 157.33 58.47 158.44 58.18 159.56 58.16 L 353.10 58.16 L 353.10 59.54 L 159.54 59.54 C 158.64 59.56 157.76 59.79 156.97 60.20 C 156.17 60.61 155.47 61.19 154.93 61.91 C 154.69 62.22 154.53 62.58 154.47 62.97 C 154.41 63.35 154.44 63.75 154.57 64.12 C 155.91 67.48 157.27 71.17 158.57 74.75 C 160.65 80.38 162.62 85.69 164.23 89.10 C 164.76 90.15 165.58 91.02 166.58 91.62 C 167.59 92.23 168.75 92.53 169.92 92.51 L 236.39 92.51 L 236.42 93.91 Z" fill="#050505" fill-rule="nonzero" node-id="220" stroke="none" target-height="35.775" target-width="200.06801" target-x="153.032" target-y="58.1588"></path><path d="M 464.49 66.67 L 459.00 94.49 L 460.35 94.76 L 465.83 66.94 L 464.49 66.67 Z" fill="#050505" fill-rule="nonzero" node-id="222" stroke="none" target-height="28.088997" target-width="6.834015" target-x="459" target-y="66.6707"></path><path d="M 355.89 111.77 L 354.51 111.77 L 354.51 62.51 L 343.58 45.65 L 344.73 44.90 L 355.89 62.10 L 355.89 111.77 Z" fill="#050505" fill-rule="nonzero" node-id="224" stroke="none" target-height="66.87019" target-width="12.310028" target-x="343.58" target-y="44.8988"></path><path d="M 504.26 93.97 L 456.85 94.61 L 456.87 95.98 L 504.28 95.34 L 504.26 93.97 Z" fill="#050505" fill-rule="nonzero" node-id="226" stroke="none" target-height="2.015297" target-width="47.42502" target-x="456.853" target-y="93.9653"></path><path d="M 500.85 100.78 L 485.73 100.78 L 481.16 94.89" fill="#e24f05" fill-rule="nonzero" node-id="228" stroke="none" target-height="5.8901978" target-width="19.690002" target-x="481.16" target-y="94.8888"></path><path d="M 500.85 101.46 L 485.40 101.46 L 480.62 95.31 L 481.70 94.46 L 486.07 100.09 L 500.85 100.09 L 500.85 101.46 Z" fill="#050505" fill-rule="nonzero" node-id="230" stroke="none" target-height="7.000099" target-width="20.230011" target-x="480.62" target-y="94.4589"></path><path d="M 355.89 69.86 L 186.88 69.86 L 185.51 62.99 L 358.64 62.99 L 355.89 69.86 Z" fill="#020202" fill-opacity="0.36" fill-rule="nonzero" group-id="7,15" node-id="236" stroke="none" target-height="6.8700027" target-width="173.13002" target-x="185.51" target-y="62.9888"></path><path d="M 355.89 80.85 L 191.01 80.85 L 189.63 73.98 L 355.89 73.98 L 355.89 80.85 Z" fill="#020202" fill-opacity="0.36" fill-rule="nonzero" group-id="8,16" node-id="244" stroke="none" target-height="6.8700027" target-width="166.26001" target-x="189.63" target-y="73.9788"></path><path d="M 289.94 106.66 C 254.94 106.66 218.01 106.31 213.25 104.87 C 204.98 102.37 201.01 95.07 200.12 93.22 L 197.30 93.22 L 197.12 93.08 C 192.34 89.55 183.84 60.30 183.48 59.08 L 183.22 58.20 L 187.41 58.20 C 187.58 55.20 188.28 43.30 188.76 40.20 L 190.10 40.45 C 189.57 43.81 188.73 58.78 188.73 58.93 L 188.73 59.58 L 185.10 59.58 C 187.69 68.36 194.24 88.74 197.82 91.86 L 201.06 91.86 L 201.24 92.28 C 201.24 92.37 205.03 100.95 213.70 103.57 C 222.60 106.26 353.31 105.00 354.63 104.99 L 354.63 106.36 C 352.02 106.36 321.82 106.66 289.94 106.66 Z" fill="#020202" fill-rule="nonzero" node-id="248" stroke="none" target-height="66.4601" target-width="171.41" target-x="183.22" target-y="40.1989"></path><path d="M 15.82 55.29 L 22.69 56.81 L 29.56 85.66 L 43.30 85.66" fill="#e24f05" fill-rule="nonzero" node-id="250" stroke="none" target-height="30.369999" target-width="27.48" target-x="15.8201" target-y="55.2888"></path><path d="M 43.30 86.35 L 29.02 86.35 L 22.12 57.39 L 15.67 55.96 L 15.97 54.62 L 23.26 56.23 L 30.10 84.97 L 43.30 84.97 L 43.30 86.35 Z" fill="#050505" fill-rule="nonzero" node-id="252" stroke="none" target-height="31.73" target-width="27.63" target-x="15.67" target-y="54.6189"></path><path d="M 29.56 84.97 L 6.93 84.97 L 6.93 86.34 L 29.56 86.34 L 29.56 84.97 Z" fill="#050505" fill-rule="nonzero" node-id="254" stroke="none" target-height="1.3699951" target-width="22.63005" target-x="6.93005" target-y="84.9688"></path><path d="M 355.20 101.45 L 151.20 101.45 L 151.20 100.77 C 151.20 65.84 128.84 42.37 95.55 42.37 C 88.80 42.28 82.11 43.56 75.88 46.14 C 69.64 48.72 64.00 52.54 59.29 57.37 C 46.81 70.09 41.45 87.97 41.68 100.05 L 40.31 100.05 C 40.07 87.69 45.55 69.40 58.31 56.39 C 63.14 51.42 68.94 47.49 75.34 44.84 C 81.74 42.19 88.62 40.87 95.55 40.96 C 129.44 40.96 152.28 64.67 152.55 100.04 L 355.20 100.04 L 355.20 101.45 Z" fill="#050505" fill-rule="nonzero" node-id="256" stroke="none" target-height="60.583496" target-width="315.13" target-x="40.07" target-y="40.8655"></path></svg>