<?xml version="1.0" standalone="no"?><!DOCTYPE svg PUBLIC "-//W3C//DTD SVG 1.1//EN" "http://www.w3.org/Graphics/SVG/1.1/DTD/svg11.dtd"><svg height="127" node-id="1" sillyvg="true" template-height="127" template-width="462" version="1.1" viewBox="0 0 462 127" width="462" xmlns="http://www.w3.org/2000/svg" xmlns:xlink="http://www.w3.org/1999/xlink"><defs node-id="78"><mask height="41" id="mask0" maskUnits="userSpaceOnUse" node-id="44" width="261" x="53" y="6"><path d="M 167.00 8.00 C 230.50 1.50 251.09 14.33 313.50 41.00 L 305.18 46.00 L 154.03 46.00 L 55.64 41.73 L 53.00 35.73 C 70.81 29.33 117.81 13.04 167.00 8.00 Z" fill="#222222" fill-rule="nonzero" node-id="83" stroke="none" target-height="44.5001" target-width="260.5" target-x="53" target-y="1.5"></path></mask><mask height="76" id="mask1" maskUnits="userSpaceOnUse" node-id="73" width="418" x="40" y="30"><path d="M 439.11 100.00 C 435.25 99.82 424.77 99.58 423.50 100.00 C 421.92 80.65 414.00 53.27 381.07 51.89 C 348.14 50.51 339.50 83.50 342.02 104.48 L 338.33 104.48 L 326.19 96.63 L 182.14 96.63 L 167.89 104.48 L 141.50 104.48 C 146.50 78.50 129.50 51.00 103.00 51.00 C 76.50 51.00 69.22 71.76 64.47 82.22 L 48.00 82.22 C 46.77 81.78 43.00 69.50 43.00 69.50 C 43.00 69.50 49.34 69.63 51.50 69.50 C 51.50 69.50 54.12 53.83 52.00 51.00 C 49.00 47.00 45.38 44.24 44.50 42.50 C 64.20 39.01 109.64 31.60 127.79 32.02 C 145.94 32.44 174.40 39.86 186.36 43.52 C 232.47 42.09 313.38 41.43 358.91 41.43 C 394.79 41.43 443.16 64.61 456.00 72.81 C 455.58 79.92 448.44 81.70 444.92 81.70 L 439.11 100.00 Z" fill="#4c9558" fill-rule="nonzero" node-id="88" stroke="#000000" stroke-linecap="butt" stroke-width="3" target-height="72.877396" target-width="413" target-x="43" target-y="31.5986"></path></mask></defs><path d="M 37.80 43.00 C 39.76 43.18 44.09 43.43 45.80 43.00 L 49.00 50.00 L 33.00 50.00 L 33.00 48.38 L 37.80 43.00 Z" fill="#232323" fill-rule="nonzero" node-id="92" stroke="#000000" stroke-linecap="butt" stroke-width="2" target-height="7" target-width="16" target-x="33" target-y="43"></path><path d="M 151.00 116.50 L 53.50 104.50 L 52.00 68.46 L 66.82 47.19 L 322.93 61.02 L 373.73 44.00 L 424.00 68.46 L 435.50 116.50 L 151.00 116.50 Z" fill="#2d2d2d" fill-rule="nonzero" node-id="94" stroke="#000000" stroke-linecap="butt" stroke-width="2" target-height="72.5" target-width="383.5" target-x="52" target-y="44"></path><path d="M 42.25 84.00 L 34.00 62.19 L 47.75 59.00 L 56.00 84.00 L 42.25 84.00 Z" fill="#232323" fill-rule="nonzero" node-id="96" stroke="#000000" stroke-linecap="butt" stroke-width="2" target-height="25" target-width="22" target-x="34" target-y="59"></path><path d="M 38.50 43.50 L 34.50 48.00 L 34.50 63.50 L 37.50 68.50 L 48.00 67.50 L 53.00 44.50 L 38.50 43.50 Z" fill="#ff400d" fill-rule="nonzero" node-id="98" stroke="none" target-height="25" target-width="18.5" target-x="34.5" target-y="43.5"></path><path d="M 97.29 126.58 C 116.78 126.58 132.58 110.78 132.58 91.29 C 132.58 71.80 116.78 56.00 97.29 56.00 C 77.80 56.00 62.00 71.80 62.00 91.29 C 62.00 110.78 77.80 126.58 97.29 126.58 Z" fill="#000000" fill-rule="nonzero" node-id="100" stroke="none" target-height="70.58" target-width="70.58" target-x="62" target-y="56"></path><path d="M 97.29 119.83 C 113.05 119.83 125.83 107.05 125.83 91.29 C 125.83 75.53 113.05 62.75 97.29 62.75 C 81.53 62.75 68.75 75.53 68.75 91.29 C 68.75 107.05 81.53 119.83 97.29 119.83 Z" fill="none" node-id="102" stroke="#232323" stroke-linecap="butt" stroke-width="2" target-height="57.08" target-width="57.08" target-x="68.75" target-y="62.75"></path><path d="M 100.34 62.76 L 94.87 62.76 L 94.87 88.50 L 100.34 88.50 L 100.34 62.76 Z" fill="#232323" fill-rule="nonzero" node-id="104" stroke="none" target-height="25.740002" target-width="5.4699936" target-x="94.87" target-y="62.76"></path><path d="M 85.67 65.05 L 80.94 67.79 L 93.81 90.08 L 98.54 87.34 L 85.67 65.05 Z" fill="#232323" fill-rule="nonzero" node-id="106" stroke="none" target-height="25.026398" target-width="17.607094" target-x="80.9362" target-y="65.0518"></path><path d="M 74.11 74.38 L 71.38 79.12 L 93.67 91.99 L 96.41 87.25 L 74.11 74.38 Z" fill="#232323" fill-rule="nonzero" node-id="108" stroke="none" target-height="17.607094" target-width="25.026497" target-x="71.3788" target-y="74.383"></path><path d="M 68.76 88.25 L 68.76 93.72 L 94.50 93.72 L 94.50 88.25 L 68.76 88.25 Z" fill="#232323" fill-rule="nonzero" node-id="110" stroke="none" target-height="5.470001" target-width="25.739998" target-x="68.76" target-y="88.25"></path><path d="M 71.06 102.92 L 73.79 107.66 L 96.08 94.79 L 93.35 90.05 L 71.06 102.92 Z" fill="#232323" fill-rule="nonzero" node-id="112" stroke="none" target-height="17.606895" target-width="25.026497" target-x="71.0558" target-y="90.0501"></path><path d="M 80.39 114.48 L 85.13 117.21 L 98.00 94.92 L 93.26 92.19 L 80.39 114.48 Z" fill="#232323" fill-rule="nonzero" node-id="114" stroke="none" target-height="25.026596" target-width="17.607101" target-x="80.388" target-y="92.1864"></path><path d="M 94.25 119.83 L 99.72 119.83 L 99.72 94.09 L 94.25 94.09 L 94.25 119.83 Z" fill="#232323" fill-rule="nonzero" node-id="116" stroke="none" target-height="25.739899" target-width="5.470001" target-x="94.25" target-y="94.0901"></path><path d="M 108.92 117.53 L 113.66 114.79 L 100.78 92.50 L 96.05 95.23 L 108.92 117.53 Z" fill="#232323" fill-rule="nonzero" node-id="118" stroke="none" target-height="25.026703" target-width="17.607597" target-x="96.0474" target-y="92.4993"></path><path d="M 120.48 108.20 L 123.21 103.46 L 100.92 90.59 L 98.19 95.33 L 120.48 108.20 Z" fill="#232323" fill-rule="nonzero" node-id="120" stroke="none" target-height="17.6073" target-width="25.026596" target-x="98.1864" target-y="90.5917"></path><path d="M 125.83 94.35 L 125.83 88.88 L 100.09 88.88 L 100.09 94.35 L 125.83 94.35 Z" fill="#232323" fill-rule="nonzero" node-id="122" stroke="none" target-height="5.470001" target-width="25.740005" target-x="100.09" target-y="88.88"></path><path d="M 123.53 79.66 L 120.80 74.93 L 98.51 87.80 L 101.24 92.53 L 123.53 79.66 Z" fill="#232323" fill-rule="nonzero" node-id="124" stroke="none" target-height="17.607101" target-width="25.025993" target-x="98.507" target-y="74.9252"></path><path d="M 114.21 68.11 L 109.47 65.37 L 96.60 87.66 L 101.34 90.40 L 114.21 68.11 Z" fill="#232323" fill-rule="nonzero" node-id="126" stroke="none" target-height="25.026497" target-width="17.6073" target-x="96.6017" target-y="65.3702"></path><path d="M 97.29 95.07 C 99.38 95.07 101.07 93.38 101.07 91.29 C 101.07 89.20 99.38 87.51 97.29 87.51 C 95.20 87.51 93.51 89.20 93.51 91.29 C 93.51 93.38 95.20 95.07 97.29 95.07 Z" fill="#cccccc" fill-rule="nonzero" node-id="128" stroke="none" target-height="7.5599976" target-width="7.5599976" target-x="93.51" target-y="87.51"></path><g node-id="250"><g node-id="256"><path d="M 97.29 98.88 C 101.48 98.88 104.88 95.48 104.88 91.29 C 104.88 87.10 101.48 83.70 97.29 83.70 C 93.10 83.70 89.70 87.10 89.70 91.29 C 89.70 95.48 93.10 98.88 97.29 98.88 Z" fill="#cccccc" fill-opacity="0.040000003" fill-rule="nonzero" group-id="1,7" node-id="134" stroke="none" target-height="15.179901" target-width="15.18" target-x="89.7" target-y="83.7"></path></g></g><path d="M 376.29 126.58 C 395.78 126.58 411.58 110.78 411.58 91.29 C 411.58 71.80 395.78 56.00 376.29 56.00 C 356.80 56.00 341.00 71.80 341.00 91.29 C 341.00 110.78 356.80 126.58 376.29 126.58 Z" fill="#000000" fill-rule="nonzero" node-id="138" stroke="none" target-height="70.58" target-width="70.57999" target-x="341" target-y="56"></path><path d="M 376.29 119.83 C 392.05 119.83 404.83 107.05 404.83 91.29 C 404.83 75.53 392.05 62.75 376.29 62.75 C 360.53 62.75 347.75 75.53 347.75 91.29 C 347.75 107.05 360.53 119.83 376.29 119.83 Z" fill="none" node-id="140" stroke="#232323" stroke-linecap="butt" stroke-width="2" target-height="57.08" target-width="57.079987" target-x="347.75" target-y="62.75"></path><path d="M 379.34 62.76 L 373.87 62.76 L 373.87 88.50 L 379.34 88.50 L 379.34 62.76 Z" fill="#232323" fill-rule="nonzero" node-id="142" stroke="none" target-height="25.740002" target-width="5.470001" target-x="373.87" target-y="62.76"></path><path d="M 364.67 65.05 L 359.94 67.79 L 372.81 90.08 L 377.54 87.34 L 364.67 65.05 Z" fill="#232323" fill-rule="nonzero" node-id="144" stroke="none" target-height="25.026398" target-width="17.606995" target-x="359.936" target-y="65.0518"></path><path d="M 353.11 74.38 L 350.38 79.12 L 372.67 91.99 L 375.40 87.25 L 353.11 74.38 Z" fill="#232323" fill-rule="nonzero" node-id="146" stroke="none" target-height="17.607094" target-width="25.026001" target-x="350.379" target-y="74.383"></path><path d="M 347.76 88.25 L 347.76 93.72 L 373.50 93.72 L 373.50 88.25 L 347.76 88.25 Z" fill="#232323" fill-rule="nonzero" node-id="148" stroke="none" target-height="5.470001" target-width="25.73999" target-x="347.76" target-y="88.25"></path><path d="M 350.06 102.92 L 352.79 107.66 L 375.08 94.79 L 372.35 90.05 L 350.06 102.92 Z" fill="#232323" fill-rule="nonzero" node-id="150" stroke="none" target-height="17.606895" target-width="25.026001" target-x="350.056" target-y="90.0501"></path><path d="M 359.39 114.48 L 364.12 117.21 L 377.00 94.92 L 372.26 92.19 L 359.39 114.48 Z" fill="#232323" fill-rule="nonzero" node-id="152" stroke="none" target-height="25.026596" target-width="17.606995" target-x="359.388" target-y="92.1864"></path><path d="M 373.25 119.83 L 378.72 119.83 L 378.72 94.09 L 373.25 94.09 L 373.25 119.83 Z" fill="#232323" fill-rule="nonzero" node-id="154" stroke="none" target-height="25.739899" target-width="5.470001" target-x="373.25" target-y="94.0901"></path><path d="M 387.92 117.53 L 392.65 114.79 L 379.79 92.50 L 375.05 95.23 L 387.92 117.53 Z" fill="#232323" fill-rule="nonzero" node-id="156" stroke="none" target-height="25.026703" target-width="17.608002" target-x="375.047" target-y="92.4993"></path><path d="M 399.48 108.20 L 402.21 103.46 L 379.92 90.59 L 377.19 95.33 L 399.48 108.20 Z" fill="#232323" fill-rule="nonzero" node-id="158" stroke="none" target-height="17.6073" target-width="25.027008" target-x="377.186" target-y="90.5917"></path><path d="M 404.83 94.35 L 404.83 88.88 L 379.09 88.88 L 379.09 94.35 L 404.83 94.35 Z" fill="#232323" fill-rule="nonzero" node-id="160" stroke="none" target-height="5.470001" target-width="25.73999" target-x="379.09" target-y="88.88"></path><path d="M 402.53 79.66 L 399.80 74.93 L 377.51 87.80 L 380.24 92.53 L 402.53 79.66 Z" fill="#232323" fill-rule="nonzero" node-id="162" stroke="none" target-height="17.607101" target-width="25.026001" target-x="377.507" target-y="74.9252"></path><path d="M 393.21 68.11 L 388.47 65.37 L 375.60 87.66 L 380.34 90.40 L 393.21 68.11 Z" fill="#232323" fill-rule="nonzero" node-id="164" stroke="none" target-height="25.026497" target-width="17.607025" target-x="375.602" target-y="65.3702"></path><path d="M 376.29 95.07 C 378.38 95.07 380.07 93.38 380.07 91.29 C 380.07 89.20 378.38 87.51 376.29 87.51 C 374.20 87.51 372.51 89.20 372.51 91.29 C 372.51 93.38 374.20 95.07 376.29 95.07 Z" fill="#cccccc" fill-rule="nonzero" node-id="166" stroke="none" target-height="7.5599976" target-width="7.5599976" target-x="372.51" target-y="87.51"></path><path d="M 376.29 98.88 C 380.48 98.88 383.88 95.48 383.88 91.29 C 383.88 87.10 380.48 83.70 376.29 83.70 C 372.10 83.70 368.70 87.10 368.70 91.29 C 368.70 95.48 372.10 98.88 376.29 98.88 Z" fill="#cccccc" fill-opacity="0.040000003" fill-rule="nonzero" group-id="2,8" node-id="172" stroke="none" target-height="15.179901" target-width="15.179993" target-x="368.7" target-y="83.7"></path><path d="M 340.50 121.00 L 134.00 121.00 L 135.58 103.00 L 156.54 103.00 L 171.04 94.00 L 326.17 94.00 L 336.00 102.50 L 340.50 121.00 Z" fill="#222222" fill-rule="nonzero" node-id="176" stroke="#000000" stroke-linecap="butt" stroke-width="2" target-height="27" target-width="206.5" target-x="134" target-y="94"></path><path d="M 163.00 109.50 L 163.00 104.00 L 177.00 97.00 L 177.00 109.50 L 163.00 109.50 Z" fill="#383838" fill-rule="nonzero" node-id="178" stroke="none" target-height="12.5" target-width="14" target-x="163" target-y="97"></path><path d="M 167.00 8.00 C 230.50 1.50 251.09 14.33 313.50 41.00 L 305.18 46.00 L 154.03 46.00 L 55.64 41.73 L 53.00 35.73 C 70.81 29.33 117.81 13.04 167.00 8.00 Z" fill="#222222" fill-opacity="0.8" fill-rule="nonzero" group-id="3" node-id="182" stroke="#000000" stroke-linecap="butt" stroke-opacity="0.8" stroke-width="3" target-height="44.5001" target-width="260.5" target-x="53" target-y="1.5"></path><path d="M 192.50 10.50 C 160.90 10.50 124.50 21.50 75.50 42.00 L 65.00 42.00 L 45.00 36.50 L 71.50 9.50 C 99.67 3.17 157.40 -9.50 163.00 -9.50 C 168.60 -9.50 212.83 -5.33 234.00 0.00 C 229.67 2.67 217.50 10.50 192.50 10.50 Z" fill="#ffffff" fill-opacity="0.3" fill-rule="nonzero" group-id="4,9" node-id="189" stroke="none" target-height="51.5" target-width="189" target-x="45" target-y="-9.5"></path><path d="M 242.00 40.00 C 225.50 26.50 180.00 19.50 145.50 34.00 L 167.50 52.50 C 197.83 52.83 255.20 50.80 242.00 40.00 Z" fill="#d7dadf" fill-opacity="0.3" fill-rule="nonzero" group-id="5" node-id="195" stroke="none" target-height="33.3333" target-width="109.7" target-x="145.5" target-y="19.5"></path><path d="M 45.50 49.50 L 48.00 49.00 L 48.00 64.00 L 45.50 64.00 C 34.32 63.69 26.33 62.41 16.55 58.47 C 14.88 57.79 14.98 55.46 16.69 54.90 C 27.16 51.44 34.20 50.00 45.50 49.50 Z" fill="#232323" fill-rule="nonzero" node-id="198" stroke="none" target-height="15" target-width="33.1152" target-x="14.8848" target-y="49"></path><path d="M 133.00 33.43 C 139.00 27.50 149.07 18.04 153.30 17.50 C 157.52 16.97 215.62 12.15 226.71 17.50 C 235.59 21.79 269.27 36.29 283.00 42.00" fill="none" node-id="200" stroke="#000000" stroke-linecap="butt" stroke-width="2" target-height="29.8521" target-width="150" target-x="133" target-y="12.1479"></path><path d="M 243.00 12.50 C 235.50 14.00 228.48 15.60 232.50 17.00 L 290.50 41.00" fill="none" node-id="202" stroke="#000000" stroke-linecap="butt" stroke-width="2" target-height="28.5" target-width="62.016006" target-x="228.484" target-y="12.5"></path><path d="M 17.00 55.76 C 28.00 56.26 36.00 55.76 46.32 55.26 L 46.32 60.26 C 35.77 60.42 28.50 59.76 17.00 57.76 C 15.50 57.61 15.00 55.67 17.00 55.76 Z" fill="#616161" fill-rule="nonzero" node-id="204" stroke="none" target-height="5.1586" target-width="31.3232" target-x="14.9962" target-y="55.2602"></path><path d="M 433.11 99.00 C 429.25 98.83 418.77 98.58 417.50 99.00 C 415.92 79.65 408.00 52.27 375.07 50.89 C 342.14 49.51 333.50 82.50 336.02 103.48 L 332.33 103.48 L 320.19 95.63 L 176.14 95.63 L 161.89 103.48 L 135.50 103.48 C 140.50 77.50 123.50 50.00 97.00 50.00 C 70.50 50.00 63.22 70.76 58.47 81.22 L 42.00 81.22 C 40.77 80.78 37.00 68.50 37.00 68.50 C 37.00 68.50 43.34 68.63 45.50 68.50 C 45.50 68.50 48.12 52.83 46.00 50.00 C 43.00 46.00 39.38 43.24 38.50 41.50 C 58.20 38.01 103.64 30.60 121.79 31.02 C 139.94 31.44 168.40 38.86 180.36 42.52 C 226.47 41.09 307.38 40.43 352.91 40.43 C 388.79 40.43 437.16 63.61 450.00 71.81 C 449.58 78.92 442.44 80.70 438.92 80.70 L 433.11 99.00 Z" fill="#4c9558" fill-rule="nonzero" node-id="206" stroke="#000000" stroke-linecap="butt" stroke-width="3" target-height="72.877" target-width="413" target-x="37" target-y="30.6"></path><path d="M 323.00 97.00 L 310.00 87.00" fill="none" node-id="208" stroke="#000000" stroke-linecap="butt" stroke-width="2" target-height="10" target-width="13" target-x="310" target-y="87"></path><path d="M 60.00 85.00 L 60.00 108.00 C 55.29 103.40 46.79 88.31 45.00 85.00 L 60.00 85.00 Z" fill="#000000" fill-rule="nonzero" node-id="210" stroke="#000000" stroke-linecap="butt" stroke-width="2" target-height="23" target-width="15" target-x="45" target-y="85"></path><path d="M 47.29 87.00 L 32.00 87.00 L 32.00 92.38 C 32.00 94.54 40.44 108.36 44.65 115.00 L 61.00 115.00 L 61.00 110.69 L 47.29 87.00 Z" fill="#232323" fill-rule="nonzero" node-id="212" stroke="#000000" stroke-linecap="butt" stroke-width="2" target-height="28" target-width="29" target-x="32" target-y="87"></path><path d="M 49.38 81.00 L 43.00 81.00 L 47.23 90.38 C 48.64 93.50 50.82 96.21 53.57 98.25 L 60.00 103.00 L 60.00 95.14 L 57.59 94.23 C 54.75 93.15 52.55 90.84 51.62 87.95 L 49.38 81.00 Z" fill="#515151" fill-rule="nonzero" node-id="214" stroke="#000000" stroke-linecap="butt" stroke-width="2" target-height="22" target-width="17" target-x="43" target-y="81"></path><path d="M 441.00 82.00 L 449.85 82.00 C 450.61 85.78 450.99 88.69 451.00 91.45 C 451.01 94.18 450.65 96.80 449.88 100.00 L 441.00 100.00 L 441.00 82.00 Z" fill="#c4c4c4" fill-rule="nonzero" node-id="216" stroke="#000000" stroke-linecap="butt" stroke-width="2" target-height="18" target-width="10.006989" target-x="441" target-y="82"></path><path d="M 420.25 120.00 L 417.00 96.56 L 417.00 95.00 L 437.02 95.00 L 445.68 101.25 L 460.00 101.25 L 460.00 111.15 L 454.88 120.00 L 420.25 120.00 Z" fill="#5b5b5b" fill-rule="nonzero" node-id="218" stroke="#000000" stroke-linecap="butt" stroke-width="2" target-height="25" target-width="43" target-x="417" target-y="95"></path><path d="M 454.00 78.66 L 448.12 76.00 L 434.00 78.66 L 432.00 94.50 L 435.50 100.50 L 439.56 101.00 L 447.50 101.00 L 447.50 86.00 L 454.00 78.66 Z" fill="#5b5b5b" fill-rule="nonzero" node-id="220" stroke="#000000" stroke-linecap="round" stroke-width="2" target-height="25" target-width="22" target-x="432" target-y="76"></path><path d="M 26.67 24.22 L 45.00 20.50 L 48.50 33.88 L 51.00 33.88 L 54.00 39.24 L 25.50 39.24 L 21.00 33.88 L 26.67 24.22 Z" fill="#232323" fill-rule="nonzero" node-id="222" stroke="#000000" stroke-linecap="butt" stroke-width="2" target-height="18.7439" target-width="33" target-x="21" target-y="20.5"></path><path d="M 39.97 6.61 C 30.26 5.55 15.08 3.22 6.78 1.72 C 3.99 1.22 1.00 3.59 1.00 6.42 L 1.00 21.83 C 1.00 23.45 1.97 24.90 3.46 25.53 L 11.80 29.00 C 12.58 29.33 13.44 29.40 14.26 29.20 L 44.78 21.98 C 47.39 21.37 48.66 18.42 47.33 16.10 L 43.04 8.61 C 42.39 7.49 41.25 6.75 39.97 6.61 Z" fill="#515151" fill-rule="nonzero" node-id="224" stroke="#000000" stroke-linecap="butt" stroke-width="2" target-height="28.176039" target-width="47.664" target-x="1" target-y="1.21956"></path><path d="M 135.50 110.00 L 337.50 110.50 L 339.50 120.50 L 134.50 120.50 L 135.50 110.00 Z" fill="#515151" fill-rule="nonzero" node-id="226" stroke="none" target-height="10.5" target-width="205" target-x="134.5" target-y="110"></path><path d="M 424.50 95.00 L 416.50 95.00 L 420.00 120.50 L 455.00 120.50 L 460.50 111.50 L 460.50 101.00 L 454.00 106.00 L 429.50 106.00 L 424.50 95.00 Z" fill="#222222" fill-rule="nonzero" node-id="228" stroke="#000000" stroke-linecap="round" stroke-width="2" target-height="25.5" target-width="44" target-x="416.5" target-y="95"></path><path d="M 445.00 73.67 L 445.00 74.67 L 432.25 76.00 L 428.58 74.83 L 428.00 73.00 L 445.00 73.67 Z" fill="#f4f4f4" fill-rule="nonzero" node-id="230" stroke="none" target-height="3" target-width="17" target-x="428" target-y="73"></path><path d="M 151.00 36.00 L 151.00 44.00 C 154.83 54.83 165.40 80.00 177.00 94.00" fill="none" node-id="232" stroke="#000000" stroke-linecap="butt" stroke-width="2" target-height="58" target-width="26" target-x="151" target-y="36"></path><path d="M 179.50 50.50 L 195.00 50.50" fill="none" node-id="234" stroke="#000000" stroke-linecap="round" stroke-width="2" target-height="0" target-width="15.5" target-x="179.5" target-y="50.5"></path><path d="M 291.50 41.00 C 296.30 43.80 298.17 46.17 298.50 47.00 C 301.83 53.00 306.30 72.60 299.50 95.00" fill="none" node-id="236" stroke="#000000" stroke-linecap="butt" stroke-width="2" target-height="54" target-width="14.799988" target-x="291.5" target-y="41"></path><path d="M 339.50 59.50 L 344.00 55.00 L 317.00 59.50 L 339.50 59.50 Z" fill="#232323" fill-rule="nonzero" node-id="238" stroke="none" target-height="4.5" target-width="27" target-x="317" target-y="55"></path><path d="M 344.00 55.00 L 344.35 55.35 C 344.51 55.20 344.54 54.96 344.44 54.77 C 344.35 54.58 344.13 54.47 343.92 54.51 L 344.00 55.00 Z M 339.50 59.50 L 339.50 60.00 C 339.63 60.00 339.76 59.95 339.85 59.85 L 339.50 59.50 Z M 317.00 59.50 L 316.92 59.01 C 316.66 59.05 316.48 59.28 316.50 59.54 C 316.52 59.80 316.74 60.00 317.00 60.00 L 317.00 59.50 Z M 343.65 54.65 L 339.15 59.15 L 339.85 59.85 L 344.35 55.35 L 343.65 54.65 Z M 339.50 59.00 L 317.00 59.00 L 317.00 60.00 L 339.50 60.00 L 339.50 59.00 Z M 317.08 59.99 L 344.08 55.49 L 343.92 54.51 L 316.92 59.01 L 317.08 59.99 Z" fill="#000000" fill-rule="nonzero" node-id="240" stroke="none" target-height="5.5289" target-width="28.063995" target-x="316.48" target-y="54.4711"></path><path d="M 335.50 66.00 L 337.50 63.00 L 316.00 63.00 L 335.50 66.00 Z" fill="#232323" fill-rule="nonzero" node-id="242" stroke="#000000" stroke-linecap="round" stroke-width="1" target-height="3" target-width="21.5" target-x="316" target-y="63"></path><path d="M 133.50 47.00 C 118.50 43.50 117.00 38.50 41.50 56.50 L 9.00 29.50 L 116.50 7.50 L 387.50 40.50 C 383.67 42.67 377.00 44.00 369.00 44.00 C 361.00 44.00 349.17 50.33 346.00 53.50 C 295.50 53.50 192.00 56.50 180.00 56.50 C 165.00 56.50 148.50 50.50 133.50 47.00 Z" fill="#ffffff" fill-opacity="0.2" fill-rule="nonzero" group-id="6,10" node-id="248" stroke="none" target-height="49.00004" target-width="378.5" target-x="9" target-y="7.49866"></path></svg>