<?xml version="1.0" standalone="no"?><!DOCTYPE svg PUBLIC "-//W3C//DTD SVG 1.1//EN"
        "http://www.w3.org/Graphics/SVG/1.1/DTD/svg11.dtd">
<svg t="1712718577233" class="icon" viewBox="0 0 1158 1024" version="1.1" xmlns="http://www.w3.org/2000/svg"
     p-id="11437" width="54.28125" height="48" xmlns:xlink="http://www.w3.org/1999/xlink">
    <path d="M975.162 219.28H821.787a43.825 43.825 0 0 1-43.816-43.826v-53.463c0-66.443 54.065-120.509 120.508-120.509 66.452 0 120.509 54.066 120.509 120.509v53.463a43.825 43.825 0 0 1-43.826 43.817z m0 803.238H821.787A43.825 43.825 0 0 1 777.97 978.7V707.853a43.825 43.825 0 0 1 43.825-43.825h153.366a43.825 43.825 0 0 1 43.826 43.825v270.848a43.816 43.816 0 0 1-43.826 43.817z"
          fill="#D55400" p-id="11438"></path>
    <path d="M332.45 219.28H179.074a43.825 43.825 0 0 1-43.816-43.826v-53.463c0-66.443 54.056-120.509 120.508-120.509 66.444 0 120.51 54.066 120.51 120.509v53.463a43.825 43.825 0 0 1-43.826 43.817z m0 803.238H179.074a43.825 43.825 0 0 1-43.816-43.817V707.853a43.825 43.825 0 0 1 43.816-43.825H332.45a43.825 43.825 0 0 1 43.825 43.825v270.848a43.816 43.816 0 0 1-43.825 43.817z"
          fill="#E87E04" p-id="11439"></path>
    <path d="M1049.753 751.67h-945.26c-56.374 0-102.247-45.865-102.247-102.238V233.876c0-56.374 45.864-102.247 102.247-102.247h945.26c56.374 0 102.247 45.873 102.247 102.256v415.538c0 56.382-45.873 102.247-102.247 102.247z"
          fill="#F2C500" p-id="11440"></path>
    <path d="M1049.753 131.629h-472.63v620.04h472.62c56.384 0 102.257-45.864 102.257-102.246V233.876c0-56.374-45.873-102.247-102.247-102.247z"
          fill="#F59D00" p-id="11441"></path>
    <path d="M263.932 490.945c-4.573 13.33-34.942 12.333-37.763 0l-9.62-43.861-9.63 43.861c-2.856 12.504-33.63 13.15-37.752 0l-36.828-112.9c-3.818-11.408 24.333-19.852 27.576-8.516l28.133 94.954 14.623-62.563c2.237-10.087 25.52-10.078 27.756 0l14.623 62.563 28.133-94.945c3.234-11.318 31.35-2.946 27.577 8.507l-36.828 112.91z m91.44-70.333h27.766c11.416 0 11.767 22.214 0 22.214h-27.756v31.466h49.601c11.444 0 11.803 25.168 0 25.168h-65.895c-6.297 0-12.594-2.964-12.594-8.883V373.05c0-5.928 6.288-8.892 12.594-8.892h65.886c11.803 0 11.435 25.178 0 25.178h-49.61v31.276z m98.287 78.848c-6.288 0-12.584-2.964-12.584-8.883V372.862c0-6.108 7.221-8.695 14.434-8.695 7.222 0 14.435 2.587 14.435 8.695v101.42h42.2c11.102 0 11.102 25.178 0 25.178h-58.476zM588.97 389.336c-10.555 0-16.663 5.928-16.663 18.503v49.054c0 12.584 6.108 18.503 16.842 18.503 14.803 0 15.738-11.281 16.294-18.503 0.548-6.845 6.845-8.695 14.247-8.695 9.997 0 14.623 2.587 14.623 13.698 0 48.9-90.875 57.254-90.875-5.003v-49.045c0-62.392 90.875-53.122 90.875-6.853 0 11.111-4.626 13.698-14.435 13.698-7.779 0-14.066-2.039-14.435-8.695-0.197-4.815-0.745-16.662-16.473-16.662z m73.305 67.557v-49.045c0-31.833 19.798-43.69 45.344-43.69 25.537 0 45.532 11.857 45.532 43.69v49.045c0 31.833-19.995 43.681-45.532 43.681-25.546 0-45.352-11.848-45.352-43.681z m61.988-49.045c0-12.773-6.287-18.512-16.653-18.512s-16.474 5.74-16.474 18.503v49.054c0 12.773 6.108 18.503 16.474 18.503s16.662-5.73 16.662-18.503v-49.045z m127.354 43.682c-4.132 6.997-14.803 7.456-18.684 0l-17.587-32.211v71.258c0 11.857-28.88 11.857-28.88 0V378.61c0-10.546 7.223-14.435 14.445-14.435 10.356 0 14.803 1.114 22.384 14.435l19.07 33.324 19.06-33.324c7.59-13.321 12.037-14.435 22.394-14.435 7.401 0 14.435 3.89 14.435 14.435v111.975c0 11.857-28.87 11.857-28.87 0v-69.408l-17.767 30.361z m110.313-30.918h27.765c11.417 0 11.767 22.214 0 22.214H961.94v31.466h49.601c11.444 0 11.803 25.168 0 25.168h-65.886c-6.288 0-12.593-2.964-12.593-8.883V373.05c0-5.928 6.287-8.892 12.593-8.892h65.886c11.803 0 11.435 25.178 0 25.178h-49.6v31.276z"
          fill="#808285" p-id="11442"></path>
    <path d="M619.69 448.198c-7.392 0-13.707 1.841-14.263 8.713-0.548 7.213-1.456 18.485-16.268 18.485-5.12 0-9.18-1.347-12.036-4.14v28.77c25.878 5.318 57.2-9.404 57.2-38.121 0-11.111-4.644-13.707-14.641-13.707z m-42.576-83.438v28.654c2.811-2.74 6.818-4.087 11.839-4.087 15.746 0 16.303 11.865 16.474 16.653 0.386 6.665 6.665 8.713 14.434 8.713 9.818 0 14.462-2.605 14.462-13.707 0-27.172-31.349-41.571-57.2-36.226z m85.162 92.133v-49.045c0-31.833 19.798-43.69 45.344-43.69 25.537 0 45.532 11.857 45.532 43.69v49.045c0 31.833-19.995 43.681-45.532 43.681-25.546 0-45.352-11.848-45.352-43.681z m61.988-49.045c0-12.773-6.287-18.512-16.653-18.512s-16.474 5.74-16.474 18.503v49.054c0 12.773 6.108 18.503 16.474 18.503s16.662-5.73 16.662-18.503v-49.045z m127.354 43.682c-4.132 6.997-14.803 7.456-18.684 0l-17.587-32.211v71.258c0 11.857-28.88 11.857-28.88 0V378.61c0-10.546 7.223-14.435 14.445-14.435 10.356 0 14.803 1.114 22.384 14.435l19.07 33.324 19.06-33.324c7.59-13.321 12.037-14.435 22.394-14.435 7.401 0 14.435 3.89 14.435 14.435v111.975c0 11.857-28.87 11.857-28.87 0v-69.408l-17.767 30.361z m110.313-30.918h27.765c11.417 0 11.767 22.214 0 22.214H961.94v31.466h49.601c11.444 0 11.803 25.168 0 25.168h-65.886c-6.288 0-12.593-2.964-12.593-8.883V373.05c0-5.928 6.287-8.892 12.593-8.892h65.886c11.803 0 11.435 25.178 0 25.178h-49.6v31.276z"
          fill="#6D6E71" p-id="11443"></path>
</svg>