<?xml version="1.0" standalone="no"?><!DOCTYPE svg PUBLIC "-//W3C//DTD SVG 1.1//EN" "http://www.w3.org/Graphics/SVG/1.1/DTD/svg11.dtd"><svg t="1712710772337" class="icon" viewBox="0 0 1024 1024" version="1.1" xmlns="http://www.w3.org/2000/svg" p-id="9527" xmlns:xlink="http://www.w3.org/1999/xlink" width="48" height="48"><path d="M990.604254 1.484354L16.561197 347.645846a24.722165 24.722165 0 0 0-15.355381 30.710763l182.063644 147.360482 30.710764 25.029272 25.131641 191.430427 12.181937 93.104799L258.510831 890.612148l178.480722-125.043993 208.270163 257.305016a24.773349 24.773349 0 0 0 30.710763-15.355382L1022.236341 33.11644a24.773349 24.773349 0 0 0-31.632087-31.632086zM263.066261 542.556826l-1.9962-14.485244 18.068166-9.059675 8.54783-4.299507L324.334235 496.49068l302.705761-152.325388-237.138281 237.138281-8.906121 8.906121-26.411257 26.411257-18.375274 32.962887-47.959976 85.938954-18.22172-139.580422z m51.184606 248.552448l17.505136-31.376164 40.947685-73.910571 33.167624 40.947685z m323.230789 103.290535l-225.724114-278.546627-1.689092-2.149753 2.405677-2.405677 0.358292-0.358292 403.539435-403.539436L301.147608 466.342947 255.951601 489.017728l-1.228431-1.023692-54.460421-44.2235-70.890679-57.326759 60.551389-21.548719 25.89941-9.213229 701.485029-249.269033z" fill="#00C080" p-id="9528"></path></svg>