<?xml version="1.0" standalone="no"?><!DOCTYPE svg PUBLIC "-//W3C//DTD SVG 1.1//EN" "http://www.w3.org/Graphics/SVG/1.1/DTD/svg11.dtd"><svg t="1711674802682" class="icon" viewBox="0 0 1024 1024" version="1.1" xmlns="http://www.w3.org/2000/svg" p-id="11139" xmlns:xlink="http://www.w3.org/1999/xlink" width="200" height="200"><path d="M512 512m-512 0a512 512 0 1 0 1024 0 512 512 0 1 0-1024 0Z" fill="#FFC10E" p-id="11140"></path><path d="M174.912 512A335.04 335.04 0 0 0 512 849.088 335.04 335.04 0 0 0 849.088 512H174.912z" fill="#333333" p-id="11141"></path><path d="M324.288 644.288C324.288 746.688 409.6 832 512 832c102.4 0 187.712-85.312 187.712-187.712H324.288z" fill="#CA2027" p-id="11142"></path><path d="M354.112 332.8m-81.088 0a81.088 81.088 0 1 0 162.176 0 81.088 81.088 0 1 0-162.176 0Z" fill="#333333" p-id="11143"></path><path d="M661.376 332.8m-81.088 0a81.088 81.088 0 1 0 162.176 0 81.088 81.088 0 1 0-162.176 0Z" fill="#333333" p-id="11144"></path></svg>