<?xml version="1.0" standalone="no"?><!DOCTYPE svg PUBLIC "-//W3C//DTD SVG 1.1//EN" "http://www.w3.org/Graphics/SVG/1.1/DTD/svg11.dtd"><svg height="50" node-id="1" sillyvg="true" template-height="50" template-width="50" version="1.1" viewBox="0 0 50 50" width="50" xmlns="http://www.w3.org/2000/svg" xmlns:xlink="http://www.w3.org/1999/xlink"><defs node-id="9"></defs><path d="M 49.00 25.00 C 49.00 38.25 38.25 49.00 25.00 49.00 C 11.75 49.00 1.00 38.25 1.00 25.00 C 1.00 11.75 11.75 1.00 25.00 1.00 C 38.25 1.00 49.00 11.75 49.00 25.00 Z" fill="#1bbbde" fill-rule="nonzero" node-id="11" stroke="#313131" stroke-linecap="butt" stroke-width="2" target-height="48" target-width="48" target-x="1" target-y="1"></path><path d="M 21.00 21.00 C 21.00 22.66 19.66 24.00 18.00 24.00 C 16.34 24.00 15.00 22.66 15.00 21.00 C 15.00 19.34 16.34 18.00 18.00 18.00 C 19.66 18.00 21.00 19.34 21.00 21.00 Z" fill="#313131" fill-rule="nonzero" node-id="13" stroke="none" target-height="6" target-width="6" target-x="15" target-y="18"></path><path d="M 35.00 21.00 C 35.00 22.66 33.66 24.00 32.00 24.00 C 30.34 24.00 29.00 22.66 29.00 21.00 C 29.00 19.34 30.34 18.00 32.00 18.00 C 33.66 18.00 35.00 19.34 35.00 21.00 Z" fill="#313131" fill-rule="nonzero" node-id="15" stroke="none" target-height="6" target-width="6" target-x="29" target-y="18"></path><path d="M 15.00 28.50 C 15.00 29.88 13.43 31.00 11.50 31.00 C 9.57 31.00 8.00 29.88 8.00 28.50 C 8.00 27.12 9.57 26.00 11.50 26.00 C 13.43 26.00 15.00 27.12 15.00 28.50 Z" fill="#ff7798" fill-opacity="0.8" fill-rule="nonzero" node-id="17" stroke="none" target-height="5" target-width="7" target-x="8" target-y="26"></path><path d="M 42.00 28.50 C 42.00 29.88 40.43 31.00 38.50 31.00 C 36.57 31.00 35.00 29.88 35.00 28.50 C 35.00 27.12 36.57 26.00 38.50 26.00 C 40.43 26.00 42.00 27.12 42.00 28.50 Z" fill="#ff7798" fill-opacity="0.8" fill-rule="nonzero" node-id="19" stroke="none" target-height="5" target-width="7" target-x="35" target-y="26"></path><path d="M 30.75 38.00 C 31.44 38.00 32.01 37.44 31.89 36.76 C 31.80 36.27 31.66 35.79 31.47 35.32 C 31.12 34.47 30.60 33.70 29.95 33.05 C 29.30 32.40 28.53 31.88 27.68 31.53 C 26.83 31.18 25.92 31.00 25.00 31.00 C 24.08 31.00 23.17 31.18 22.32 31.53 C 21.47 31.88 20.70 32.40 20.05 33.05 C 19.40 33.70 18.88 34.47 18.53 35.32 C 18.34 35.79 18.20 36.27 18.11 36.76 C 17.99 37.44 18.56 38.00 19.25 38.00 L 19.25 38.00 C 19.93 38.00 20.47 37.43 20.66 36.77 C 20.71 36.60 20.77 36.44 20.83 36.27 C 21.06 35.73 21.39 35.23 21.81 34.81 C 22.23 34.39 22.73 34.06 23.27 33.83 C 23.82 33.61 24.41 33.49 25.00 33.49 C 25.59 33.49 26.18 33.61 26.73 33.83 C 27.27 34.06 27.77 34.39 28.19 34.81 C 28.61 35.23 28.94 35.73 29.17 36.27 C 29.23 36.44 29.29 36.60 29.34 36.77 C 29.53 37.43 30.07 38.00 30.75 38.00 L 30.75 38.00 Z" fill="#313131" fill-rule="nonzero" node-id="21" stroke="none" target-height="7" target-width="14.0224" target-x="17.9888" target-y="31"></path></svg>